<svg width="44" height="44" viewBox="0 0 44 44" fill="none" xmlns="http://www.w3.org/2000/svg">
<path d="M42.9252 9.16668L34.8333 1.07481C34.4941 0.732846 34.0902 0.461728 33.6453 0.277216C33.2003 0.0927044 32.7231 -0.00152038 32.2414 1.85509e-05H3.66667C2.69421 1.85509e-05 1.76157 0.386327 1.07394 1.07396C0.386308 1.76159 0 2.69422 0 3.66668V40.3333C0 41.3058 0.386308 42.2384 1.07394 42.9261C1.76157 43.6137 2.69421 44 3.66667 44H40.3333C41.3058 44 42.2384 43.6137 42.926 42.9261C43.6137 42.2384 44 41.3058 44 40.3333V11.7586C44.0015 11.2769 43.9073 10.7997 43.7228 10.3547C43.5383 9.90977 43.2672 9.50593 42.9252 9.16668ZM31.1667 40.3333H12.8333V27.5H31.1667V40.3333ZM40.3333 40.3333H34.8333V27.5C34.8333 26.5275 34.447 25.5949 33.7594 24.9073C33.0717 24.2197 32.1391 23.8333 31.1667 23.8333H12.8333C11.8609 23.8333 10.9282 24.2197 10.2406 24.9073C9.55297 25.5949 9.16666 26.5275 9.16666 27.5V40.3333H3.66667V3.66668H32.2414L40.3333 11.7586V40.3333ZM29.3333 9.16668C29.3333 9.65291 29.1402 10.1192 28.7964 10.463C28.4525 10.8069 27.9862 11 27.5 11H14.6667C14.1804 11 13.7141 10.8069 13.3703 10.463C13.0265 10.1192 12.8333 9.65291 12.8333 9.16668C12.8333 8.68045 13.0265 8.21414 13.3703 7.87032C13.7141 7.5265 14.1804 7.33335 14.6667 7.33335H27.5C27.9862 7.33335 28.4525 7.5265 28.7964 7.87032C29.1402 8.21414 29.3333 8.68045 29.3333 9.16668Z" fill="white"/>
</svg>
