<svg width="45" height="45" viewBox="0 0 45 45" fill="none" xmlns="http://www.w3.org/2000/svg">
<path d="M22.5 0C18.0499 0 13.6998 1.3196 9.99968 3.79193C6.29957 6.26426 3.41569 9.77828 1.71272 13.8896C0.00974882 18.001 -0.435826 22.525 0.432341 26.8895C1.30051 31.2541 3.44343 35.2632 6.59011 38.4099C9.73679 41.5566 13.7459 43.6995 18.1105 44.5677C22.475 45.4358 26.999 44.9903 31.1104 43.2873C35.2217 41.5843 38.7357 38.7004 41.2081 35.0003C43.6804 31.3002 45 26.9501 45 22.5C44.9937 16.5346 42.6211 10.8153 38.4029 6.59705C34.1847 2.37885 28.4654 0.00629961 22.5 0ZM22.5 41.5385C18.7346 41.5385 15.0537 40.4219 11.9228 38.3299C8.79195 36.2379 6.35174 33.2645 4.91076 29.7857C3.46979 26.3069 3.09276 22.4789 3.82737 18.7858C4.56197 15.0927 6.37521 11.7004 9.03778 9.03777C11.7004 6.3752 15.0927 4.56196 18.7858 3.82736C22.4789 3.09275 26.3069 3.46978 29.7857 4.91075C33.2645 6.35173 36.2379 8.79194 38.3299 11.9228C40.4219 15.0537 41.5385 18.7345 41.5385 22.5C41.5327 27.5476 39.5251 32.3867 35.9559 35.9559C32.3867 39.5251 27.5476 41.5327 22.5 41.5385ZM32.8846 22.5C32.8846 22.959 32.7023 23.3993 32.3777 23.7238C32.0531 24.0484 31.6129 24.2308 31.1538 24.2308H24.2308V31.1538C24.2308 31.6129 24.0484 32.0531 23.7238 32.3777C23.3993 32.7023 22.959 32.8846 22.5 32.8846C22.041 32.8846 21.6007 32.7023 21.2762 32.3777C20.9516 32.0531 20.7692 31.6129 20.7692 31.1538V24.2308H13.8462C13.3871 24.2308 12.9469 24.0484 12.6223 23.7238C12.2977 23.3993 12.1154 22.959 12.1154 22.5C12.1154 22.041 12.2977 21.6007 12.6223 21.2762C12.9469 20.9516 13.3871 20.7692 13.8462 20.7692H20.7692V13.8462C20.7692 13.3871 20.9516 12.9469 21.2762 12.6223C21.6007 12.2977 22.041 12.1154 22.5 12.1154C22.959 12.1154 23.3993 12.2977 23.7238 12.6223C24.0484 12.9469 24.2308 13.3871 24.2308 13.8462V20.7692H31.1538C31.6129 20.7692 32.0531 20.9516 32.3777 21.2762C32.7023 21.6007 32.8846 22.041 32.8846 22.5Z" fill="url(#paint0_linear_468_34)"/>
<defs>
<linearGradient id="paint0_linear_468_34" x1="0" y1="22.5" x2="45" y2="22.5" gradientUnits="userSpaceOnUse">
<stop offset="0.331731" stop-color="#F8B7D9"/>
<stop offset="1" stop-color="#D296FF"/>
</linearGradient>
</defs>
</svg>
