<svg width="50" height="31" viewBox="0 0 50 31" fill="none" xmlns="http://www.w3.org/2000/svg">
<path d="M48.2143 10.85C48.6879 10.85 49.1421 10.6867 49.477 10.396C49.8119 10.1053 50 9.71108 50 9.3V3.1C50 2.27783 49.6237 1.48933 48.954 0.907969C48.2842 0.326606 47.3758 0 46.4286 0H3.57143C2.62423 0 1.71582 0.326606 1.04605 0.907969C0.376274 1.48933 0 2.27783 0 3.1V9.3C0 9.71108 0.188137 10.1053 0.523023 10.396C0.85791 10.6867 1.31211 10.85 1.78571 10.85C3.20652 10.85 4.56913 11.3399 5.57379 12.212C6.57845 13.084 7.14286 14.2667 7.14286 15.5C7.14286 16.7333 6.57845 17.916 5.57379 18.788C4.56913 19.6601 3.20652 20.15 1.78571 20.15C1.31211 20.15 0.85791 20.3133 0.523023 20.604C0.188137 20.8947 0 21.2889 0 21.7V27.9C0 28.7222 0.376274 29.5107 1.04605 30.092C1.71582 30.6734 2.62423 31 3.57143 31H46.4286C47.3758 31 48.2842 30.6734 48.954 30.092C49.6237 29.5107 50 28.7222 50 27.9V21.7C50 21.2889 49.8119 20.8947 49.477 20.604C49.1421 20.3133 48.6879 20.15 48.2143 20.15C46.7935 20.15 45.4309 19.6601 44.4262 18.788C43.4216 17.916 42.8571 16.7333 42.8571 15.5C42.8571 14.2667 43.4216 13.084 44.4262 12.212C45.4309 11.3399 46.7935 10.85 48.2143 10.85ZM3.57143 23.095C5.5898 22.7393 7.40442 21.7888 8.70782 20.4046C10.0112 19.0204 10.7232 17.2877 10.7232 15.5C10.7232 13.7123 10.0112 11.9796 8.70782 10.5954C7.40442 9.21123 5.5898 8.26075 3.57143 7.905V3.1H16.0714V27.9H3.57143V23.095ZM46.4286 23.095V27.9H19.6429V3.1H46.4286V7.905C44.4102 8.26075 42.5956 9.21123 41.2922 10.5954C39.9888 11.9796 39.2768 13.7123 39.2768 15.5C39.2768 17.2877 39.9888 19.0204 41.2922 20.4046C42.5956 21.7888 44.4102 22.7393 46.4286 23.095Z" fill="url(#paint0_linear_468_93)"/>
<defs>
<linearGradient id="paint0_linear_468_93" x1="25" y1="0" x2="25" y2="31" gradientUnits="userSpaceOnUse">
<stop stop-color="#F8B7D9"/>
<stop offset="1" stop-color="#D296FF"/>
</linearGradient>
</defs>
</svg>
