<svg width="45" height="33" viewBox="0 0 45 33" fill="none" xmlns="http://www.w3.org/2000/svg">
<path d="M41.5385 0H3.46154C2.54348 0 1.66303 0.31607 1.01386 0.87868C0.364697 1.44129 0 2.20435 0 3V30C0 30.7956 0.364697 31.5587 1.01386 32.1213C1.66303 32.6839 2.54348 33 3.46154 33H41.5385C42.4565 33 43.337 32.6839 43.9861 32.1213C44.6353 31.5587 45 30.7956 45 30V3C45 2.20435 44.6353 1.44129 43.9861 0.87868C43.337 0.31607 42.4565 0 41.5385 0ZM41.5385 30H3.46154V3H41.5385V30ZM32.8846 9C32.8846 11.3869 31.7905 13.6761 29.843 15.364C27.8955 17.0518 25.2542 18 22.5 18C19.7458 18 17.1045 17.0518 15.157 15.364C13.2095 13.6761 12.1154 11.3869 12.1154 9C12.1154 8.60218 12.2977 8.22064 12.6223 7.93934C12.9469 7.65804 13.3871 7.5 13.8462 7.5C14.3052 7.5 14.7454 7.65804 15.07 7.93934C15.3946 8.22064 15.5769 8.60218 15.5769 9C15.5769 10.5913 16.3063 12.1174 17.6046 13.2426C18.903 14.3679 20.6639 15 22.5 15C24.3361 15 26.097 14.3679 27.3954 13.2426C28.6937 12.1174 29.4231 10.5913 29.4231 9C29.4231 8.60218 29.6054 8.22064 29.93 7.93934C30.2546 7.65804 30.6948 7.5 31.1538 7.5C31.6129 7.5 32.0531 7.65804 32.3777 7.93934C32.7023 8.22064 32.8846 8.60218 32.8846 9Z" fill="url(#paint0_linear_468_237)"/>
<defs>
<linearGradient id="paint0_linear_468_237" x1="0" y1="16.5" x2="45" y2="16.5" gradientUnits="userSpaceOnUse">
<stop stop-color="#F8B7D9"/>
<stop offset="1" stop-color="#D296FF"/>
</linearGradient>
</defs>
</svg>
