<svg width="33" height="32" viewBox="0 0 33 32" fill="none" xmlns="http://www.w3.org/2000/svg">
<path d="M16.3497 0C13.116 0 9.95498 0.934376 7.26629 2.68497C4.5776 4.43557 2.48202 6.92375 1.24455 9.83489C0.00708409 12.746 -0.316694 15.9493 0.314162 19.0398C0.945018 22.1302 2.50217 24.969 4.78872 27.1971C7.07526 29.4251 9.98849 30.9425 13.16 31.5572C16.3315 32.172 19.6189 31.8564 22.6064 30.6506C25.594 29.4448 28.1474 27.4028 29.9439 24.7828C31.7405 22.1629 32.6994 19.0827 32.6994 15.9317C32.6948 11.7077 30.9708 7.65801 27.9056 4.67121C24.8404 1.6844 20.6845 0.00446059 16.3497 0ZM16.3497 29.4123C13.6135 29.4123 10.9388 28.6217 8.66374 27.1404C6.38869 25.6591 4.61551 23.5538 3.56842 21.0905C2.52133 18.6272 2.24736 15.9167 2.78117 13.3017C3.31497 10.6867 4.63256 8.28472 6.56733 6.39942C8.5021 4.51411 10.9671 3.23021 13.6507 2.71005C16.3343 2.1899 19.116 2.45686 21.6439 3.47718C24.1718 4.4975 26.3324 6.22535 27.8525 8.44223C29.3727 10.6591 30.184 13.2655 30.184 15.9317C30.1799 19.5057 28.721 22.9322 26.1274 25.4595C23.5339 27.9867 20.0175 29.4083 16.3497 29.4123ZM26.411 15.9317C26.411 16.2567 26.2785 16.5684 26.0427 16.7982C25.8068 17.0281 25.4869 17.1572 25.1534 17.1572H16.3497C16.0161 17.1572 15.6962 17.0281 15.4604 16.7982C15.2245 16.5684 15.092 16.2567 15.092 15.9317V7.35308C15.092 7.02805 15.2245 6.71634 15.4604 6.48651C15.6962 6.25668 16.0161 6.12757 16.3497 6.12757C16.6832 6.12757 17.0031 6.25668 17.239 6.48651C17.4749 6.71634 17.6074 7.02805 17.6074 7.35308V14.7062H25.1534C25.4869 14.7062 25.8068 14.8353 26.0427 15.0651C26.2785 15.2949 26.411 15.6066 26.411 15.9317Z" fill="#554B50"/>
</svg>
