<svg width="28" height="28" viewBox="0 0 28 28" fill="none" xmlns="http://www.w3.org/2000/svg">
<path d="M15.6154 21C15.6154 21.3195 15.5206 21.6318 15.3431 21.8975C15.1656 22.1631 14.9134 22.3702 14.6182 22.4924C14.323 22.6147 13.9982 22.6467 13.6849 22.5843C13.3715 22.522 13.0837 22.3682 12.8578 22.1422C12.6318 21.9163 12.478 21.6285 12.4157 21.3151C12.3533 21.0018 12.3853 20.677 12.5076 20.3818C12.6298 20.0866 12.8369 19.8344 13.1025 19.6569C13.3682 19.4794 13.6805 19.3846 14 19.3846C14.4284 19.3846 14.8393 19.5548 15.1423 19.8577C15.4452 20.1607 15.6154 20.5716 15.6154 21ZM14 6.46154C11.0304 6.46154 8.61539 8.63558 8.61539 11.3077V11.8462C8.61539 12.1318 8.72885 12.4057 8.93081 12.6077C9.13278 12.8096 9.40669 12.9231 9.69231 12.9231C9.97793 12.9231 10.2518 12.8096 10.4538 12.6077C10.6558 12.4057 10.7692 12.1318 10.7692 11.8462V11.3077C10.7692 9.82692 12.219 8.61538 14 8.61538C15.781 8.61538 17.2308 9.82692 17.2308 11.3077C17.2308 12.7885 15.781 14 14 14C13.7144 14 13.4405 14.1135 13.2385 14.3154C13.0365 14.5174 12.9231 14.7913 12.9231 15.0769V16.1538C12.9231 16.4395 13.0365 16.7134 13.2385 16.9153C13.4405 17.1173 13.7144 17.2308 14 17.2308C14.2856 17.2308 14.5595 17.1173 14.7615 16.9153C14.9635 16.7134 15.0769 16.4395 15.0769 16.1538V16.0569C17.5323 15.606 19.3846 13.6473 19.3846 11.3077C19.3846 8.63558 16.9696 6.46154 14 6.46154ZM28 14C28 16.7689 27.1789 19.4757 25.6406 21.778C24.1022 24.0803 21.9157 25.8747 19.3576 26.9343C16.7994 27.9939 13.9845 28.2712 11.2687 27.731C8.55301 27.1908 6.05845 25.8574 4.10051 23.8995C2.14258 21.9416 0.809205 19.447 0.269012 16.7313C-0.271181 14.0155 0.00606598 11.2006 1.06569 8.64243C2.12532 6.08427 3.91973 3.89776 6.22202 2.35943C8.52431 0.821086 11.2311 0 14 0C17.7118 0.00391976 21.2705 1.48017 23.8952 4.10483C26.5198 6.72949 27.9961 10.2882 28 14ZM25.8462 14C25.8462 11.6571 25.1514 9.36672 23.8497 7.41863C22.548 5.47054 20.6979 3.95219 18.5333 3.05558C16.3687 2.15897 13.9869 1.92438 11.6889 2.38147C9.39101 2.83855 7.28022 3.96679 5.62351 5.6235C3.9668 7.28022 2.83856 9.391 2.38147 11.6889C1.92439 13.9869 2.15898 16.3687 3.05559 18.5333C3.95219 20.6979 5.47054 22.548 7.41863 23.8497C9.36672 25.1514 11.6571 25.8461 14 25.8461C17.1407 25.8426 20.1518 24.5934 22.3726 22.3726C24.5934 20.1517 25.8426 17.1407 25.8462 14Z" fill="#6C746C"/>
</svg>
