<svg width="40" height="43" viewBox="0 0 40 43" fill="none" xmlns="http://www.w3.org/2000/svg">
<path d="M36.6667 3.30769H31.6667V1.65385C31.6667 1.21522 31.4911 0.794557 31.1785 0.4844C30.866 0.174244 30.442 0 30 0C29.558 0 29.134 0.174244 28.8215 0.4844C28.5089 0.794557 28.3333 1.21522 28.3333 1.65385V3.30769H11.6667V1.65385C11.6667 1.21522 11.4911 0.794557 11.1785 0.4844C10.8659 0.174244 10.442 0 10 0C9.55797 0 9.13405 0.174244 8.82149 0.4844C8.50893 0.794557 8.33333 1.21522 8.33333 1.65385V3.30769H3.33333C2.44928 3.30769 1.60143 3.65618 0.976311 4.27649C0.351189 4.89681 0 5.73813 0 6.61538V39.6923C0 40.5696 0.351189 41.4109 0.976311 42.0312C1.60143 42.6515 2.44928 43 3.33333 43H36.6667C37.5507 43 38.3986 42.6515 39.0237 42.0312C39.6488 41.4109 40 40.5696 40 39.6923V6.61538C40 5.73813 39.6488 4.89681 39.0237 4.27649C38.3986 3.65618 37.5507 3.30769 36.6667 3.30769ZM8.33333 6.61538V8.26923C8.33333 8.70786 8.50893 9.12852 8.82149 9.43868C9.13405 9.74883 9.55797 9.92308 10 9.92308C10.442 9.92308 10.8659 9.74883 11.1785 9.43868C11.4911 9.12852 11.6667 8.70786 11.6667 8.26923V6.61538H28.3333V8.26923C28.3333 8.70786 28.5089 9.12852 28.8215 9.43868C29.134 9.74883 29.558 9.92308 30 9.92308C30.442 9.92308 30.866 9.74883 31.1785 9.43868C31.4911 9.12852 31.6667 8.70786 31.6667 8.26923V6.61538H36.6667V13.2308H3.33333V6.61538H8.33333ZM36.6667 39.6923H3.33333V16.5385H36.6667V39.6923ZM28.6792 21.9837C28.8341 22.1373 28.9571 22.3197 29.0409 22.5205C29.1248 22.7213 29.168 22.9365 29.168 23.1538C29.168 23.3712 29.1248 23.5864 29.0409 23.7872C28.9571 23.9879 28.8341 24.1703 28.6792 24.3239L18.6792 34.247C18.5244 34.4008 18.3406 34.5228 18.1382 34.606C17.9359 34.6892 17.719 34.7321 17.5 34.7321C17.281 34.7321 17.0641 34.6892 16.8618 34.606C16.6594 34.5228 16.4756 34.4008 16.3208 34.247L11.3208 29.2855C11.0081 28.9752 10.8324 28.5543 10.8324 28.1154C10.8324 27.6765 11.0081 27.2556 11.3208 26.9453C11.6336 26.635 12.0577 26.4606 12.5 26.4606C12.9423 26.4606 13.3664 26.635 13.6792 26.9453L17.5 30.7388L26.3208 21.9837C26.4756 21.83 26.6594 21.708 26.8618 21.6248C27.0641 21.5415 27.281 21.4987 27.5 21.4987C27.719 21.4987 27.9359 21.5415 28.1382 21.6248C28.3406 21.708 28.5244 21.83 28.6792 21.9837Z" fill="url(#paint0_linear_119_166)"/>
<defs>
<linearGradient id="paint0_linear_119_166" x1="20" y1="0" x2="20" y2="43" gradientUnits="userSpaceOnUse">
<stop stop-color="#F8A0CC"/>
<stop offset="1" stop-color="#D296FF"/>
</linearGradient>
</defs>
</svg>
