<svg width="39" height="29" viewBox="0 0 39 29" fill="none" xmlns="http://www.w3.org/2000/svg">
<path d="M37.5 0H1.5C1.10218 0 0.720644 0.152768 0.43934 0.424695C0.158035 0.696623 0 1.06544 0 1.45V26.1C0 26.8691 0.31607 27.6068 0.87868 28.1506C1.44129 28.6945 2.20435 29 3 29H36C36.7957 29 37.5587 28.6945 38.1213 28.1506C38.6839 27.6068 39 26.8691 39 26.1V1.45C39 1.06544 38.842 0.696623 38.5607 0.424695C38.2794 0.152768 37.8978 0 37.5 0ZM33.6431 2.9L19.5 15.4334L5.35687 2.9H33.6431ZM36 26.1H3V4.74694L18.4856 18.4694C18.7624 18.7149 19.1243 18.8512 19.5 18.8512C19.8757 18.8512 20.2376 18.7149 20.5144 18.4694L36 4.74694V26.1Z" fill="white"/>
</svg>
