<svg width="49" height="48" viewBox="0 0 49 48" fill="none" xmlns="http://www.w3.org/2000/svg">
<path d="M4.12538 3.8147e-06C5.22995 3.8147e-06 6.12539 0.895434 6.12539 2L6.12539 45.2433C6.12539 46.3479 5.22995 47.2433 4.12539 47.2433H2C0.895432 47.2433 0 46.3479 0 45.2433L0 2.00001C0 0.895437 0.895431 3.8147e-06 2 3.8147e-06H4.12538ZM32.6615 27.5586C34.3261 27.5586 35.2622 29.4733 34.2398 30.7869L30.0483 36.1729C29.4862 36.8951 29.4861 37.9068 30.048 38.6292L32.108 41.2772C32.9087 42.3065 34.4644 42.3065 35.2651 41.2772L48.0447 24.8497C48.6066 24.1274 48.6066 23.1159 48.0447 22.3936L35.2651 5.96614C34.4644 4.93686 32.9087 4.93686 32.108 5.96614L30.0478 8.61432C29.486 9.33661 29.486 10.3481 30.0478 11.0704L34.238 16.4567C35.26 17.7704 34.3238 19.6847 32.6594 19.6847L14.2477 19.6847C13.1431 19.6847 12.2477 20.5801 12.2477 21.6847V25.5586C12.2477 26.6632 13.1431 27.5586 14.2477 27.5586L32.6615 27.5586Z" fill="url(#paint0_linear_78_391)"/>
<defs>
<linearGradient id="paint0_linear_78_391" x1="24.5" y1="3.8147e-06" x2="24.5" y2="47.2433" gradientUnits="userSpaceOnUse">
<stop stop-color="#F8A0CC"/>
<stop offset="1" stop-color="#D296FF"/>
</linearGradient>
</defs>
</svg>
