<svg width="34" height="30" viewBox="0 0 34 30" fill="none" xmlns="http://www.w3.org/2000/svg">
<path d="M31.1247 30C30.0202 30 29.1247 29.1046 29.1247 28V2C29.1247 0.89543 30.0202 0 31.1247 0H31.375C32.4796 0 33.375 0.895431 33.375 2V28C33.375 29.1046 32.4796 30 31.375 30H31.1247ZM12.1996 12.5C10.4945 12.5 9.57144 10.5032 10.676 9.20436L12.0868 7.54539C12.7219 6.79852 12.722 5.70138 12.087 4.9544L11.5245 4.29264C10.7258 3.3531 9.27549 3.3531 8.47683 4.29264L0.47611 13.7047C-0.158771 14.4515 -0.158771 15.5485 0.476111 16.2953L8.47683 25.7074C9.27549 26.6469 10.7258 26.6469 11.5245 25.7074L12.0873 25.0453C12.7221 24.2985 12.7221 23.2015 12.0873 22.4547L10.6767 20.7953C9.57256 19.4964 10.4957 17.5 12.2006 17.5H22.8766C23.9812 17.5 24.8766 16.6046 24.8766 15.5V14.5C24.8766 13.3954 23.9812 12.5 22.8766 12.5H12.1996Z" fill="url(#paint0_linear_87_1136)"/>
<defs>
<linearGradient id="paint0_linear_87_1136" x1="16.375" y1="30" x2="16.375" y2="0" gradientUnits="userSpaceOnUse">
<stop stop-color="#F8A0CC"/>
<stop offset="1" stop-color="#D296FF"/>
</linearGradient>
</defs>
</svg>
