<svg width="18" height="25" viewBox="0 0 18 25" fill="none" xmlns="http://www.w3.org/2000/svg">
<path d="M18 7.60869C18 11.4823 14.5589 14.6889 10.125 15.1576V16.3043C10.125 16.5926 10.0065 16.8691 9.7955 17.0729C9.58452 17.2768 9.29837 17.3913 9 17.3913C8.70163 17.3913 8.41548 17.2768 8.2045 17.0729C7.99353 16.8691 7.875 16.5926 7.875 16.3043V14.1304C7.875 13.8422 7.99353 13.5657 8.2045 13.3618C8.41548 13.158 8.70163 13.0435 9 13.0435C12.7223 13.0435 15.75 10.606 15.75 7.60869C15.75 4.61141 12.7223 2.17391 9 2.17391C5.27766 2.17391 2.25 4.61141 2.25 7.60869C2.25 7.89697 2.13147 8.17344 1.92049 8.37729C1.70952 8.58113 1.42337 8.69565 1.125 8.69565C0.826631 8.69565 0.540484 8.58113 0.329505 8.37729C0.118527 8.17344 0 7.89697 0 7.60869C0 3.41304 4.03734 0 9 0C13.9627 0 18 3.41304 18 7.60869ZM9 20.6522C8.55499 20.6522 8.11998 20.7797 7.74997 21.0185C7.37996 21.2574 7.09157 21.5969 6.92127 21.9942C6.75097 22.3914 6.70642 22.8285 6.79323 23.2502C6.88005 23.6719 7.09434 24.0592 7.40901 24.3633C7.72368 24.6673 8.12459 24.8743 8.56105 24.9582C8.9975 25.0421 9.4499 24.9991 9.86104 24.8345C10.2722 24.67 10.6236 24.3913 10.8708 24.0338C11.118 23.6763 11.25 23.256 11.25 22.8261C11.25 22.2495 11.0129 21.6966 10.591 21.2889C10.169 20.8812 9.59674 20.6522 9 20.6522Z" fill="url(#paint0_linear_119_769)"/>
<defs>
<linearGradient id="paint0_linear_119_769" x1="9" y1="0" x2="9" y2="25" gradientUnits="userSpaceOnUse">
<stop stop-color="#F8A0CC"/>
<stop offset="1" stop-color="#D296FF"/>
</linearGradient>
</defs>
</svg>
