<svg width="33" height="33" viewBox="0 0 33 33" fill="none" xmlns="http://www.w3.org/2000/svg">
<path d="M27.7062 17.875H11V15.125H27.7062L25.575 12.9938L27.5 11L33 16.5L27.5 22L25.575 20.0063L27.7062 17.875ZM20.625 12.375V6.875H6.875V26.125H20.625V20.625H23.375V26.125C23.375 26.8813 23.1057 27.5286 22.5672 28.0672C22.0286 28.6057 21.3813 28.875 20.625 28.875H6.875C6.11875 28.875 5.47135 28.6057 4.93281 28.0672C4.39427 27.5286 4.125 26.8813 4.125 26.125V6.875C4.125 6.11875 4.39427 5.47135 4.93281 4.93281C5.47135 4.39427 6.11875 4.125 6.875 4.125H20.625C21.3813 4.125 22.0286 4.39427 22.5672 4.93281C23.1057 5.47135 23.375 6.11875 23.375 6.875V12.375H20.625Z" fill="url(#paint0_linear_1268_8)"/>
<defs>
<linearGradient id="paint0_linear_1268_8" x1="18.5625" y1="4.125" x2="18.5625" y2="28.875" gradientUnits="userSpaceOnUse">
<stop stop-color="#F8A0CC"/>
<stop offset="1" stop-color="#D296FF"/>
</linearGradient>
</defs>
</svg>
