<svg width="217" height="218" viewBox="0 0 217 218" fill="none" xmlns="http://www.w3.org/2000/svg">
<g filter="url(#filter0_d_119_317)">
<path d="M72.6712 186.34C49.0005 186.34 29.7421 166.644 29.7421 142.435C29.7421 118.228 49.0005 98.5314 72.6712 98.5314H102.391V68.1358C102.391 43.9267 121.649 24.2303 145.318 24.2303C168.989 24.2303 188.247 43.9267 188.247 68.1358C188.247 92.3449 168.989 112.041 145.318 112.041H115.598V142.437C115.598 166.644 96.34 186.34 72.6712 186.34ZM72.6712 112.039C56.2838 112.039 42.9515 125.675 42.9515 142.435C42.9515 159.195 56.2838 172.831 72.6712 172.831C89.0587 172.831 102.391 159.195 102.391 142.435V112.039H72.6712ZM115.598 98.5314H145.318C161.706 98.5314 175.038 84.8959 175.038 68.1358C175.038 51.3756 161.706 37.7401 145.318 37.7401C128.931 37.7401 115.598 51.3756 115.598 68.1358V98.5314Z" fill="url(#paint0_linear_119_317)"/>
<path d="M27 54.061C27.0093 62.2961 30.3671 70.1913 36.3367 76.0144C42.3064 81.8375 50.4003 85.1129 58.8426 85.1219H85.5905C86.9417 85.1219 88.2376 84.5984 89.1931 83.6663C90.1485 82.7343 90.6853 81.4703 90.6853 80.1522V54.061C90.6853 45.8231 87.3304 37.9226 81.3588 32.0975C75.3871 26.2725 67.2878 23 58.8426 23C50.3975 23 42.2981 26.2725 36.3265 32.0975C30.3548 37.9226 27 45.8231 27 54.061Z" fill="#F8A0CC"/>
<path d="M189.358 154.484C189.348 146.249 185.991 138.354 180.021 132.531C174.051 126.708 165.957 123.432 157.515 123.423H130.767C129.416 123.423 128.12 123.947 127.165 124.879C126.209 125.811 125.672 127.075 125.672 128.393V154.484C125.672 162.722 129.027 170.623 134.999 176.448C140.971 182.273 149.07 185.545 157.515 185.545C165.96 185.545 174.06 182.273 180.031 176.448C186.003 170.623 189.358 162.722 189.358 154.484Z" fill="#D296FF"/>
</g>
<defs>
<filter id="filter0_d_119_317" x="0" y="0" width="216.358" height="217.34" filterUnits="userSpaceOnUse" color-interpolation-filters="sRGB">
<feFlood flood-opacity="0" result="BackgroundImageFix"/>
<feColorMatrix in="SourceAlpha" type="matrix" values="0 0 0 0 0 0 0 0 0 0 0 0 0 0 0 0 0 0 127 0" result="hardAlpha"/>
<feOffset dy="4"/>
<feGaussianBlur stdDeviation="13.5"/>
<feComposite in2="hardAlpha" operator="out"/>
<feColorMatrix type="matrix" values="0 0 0 0 0 0 0 0 0 0 0 0 0 0 0 0 0 0 0.5 0"/>
<feBlend mode="normal" in2="BackgroundImageFix" result="effect1_dropShadow_119_317"/>
<feBlend mode="normal" in="SourceGraphic" in2="effect1_dropShadow_119_317" result="shape"/>
</filter>
<linearGradient id="paint0_linear_119_317" x1="108.995" y1="24.2303" x2="108.995" y2="186.34" gradientUnits="userSpaceOnUse">
<stop stop-color="#F8A0CC"/>
<stop offset="1" stop-color="#D296FF"/>
</linearGradient>
</defs>
</svg>
