<svg width="37" height="30" viewBox="0 0 37 30" fill="none" xmlns="http://www.w3.org/2000/svg">
<path d="M35.5769 0H1.42308C1.04565 0 0.683688 0.157795 0.416809 0.438671C0.149931 0.719548 0 1.1005 0 1.49772V26.9589C0 27.7533 0.299862 28.5152 0.833619 29.077C1.36738 29.6387 2.09131 29.9543 2.84615 29.9543H34.1538C34.9087 29.9543 35.6326 29.6387 36.1664 29.077C36.7001 28.5152 37 27.7533 37 26.9589V1.49772C37 1.1005 36.8501 0.719548 36.5832 0.438671C36.3163 0.157795 35.9543 0 35.5769 0ZM31.9178 2.99543L18.5 15.9413L5.08216 2.99543H31.9178ZM34.1538 26.9589H2.84615V4.90315L17.5376 19.0772C17.8002 19.3308 18.1436 19.4716 18.5 19.4716C18.8564 19.4716 19.1998 19.3308 19.4624 19.0772L34.1538 4.90315V26.9589Z" fill="url(#paint0_linear_119_379)"/>
<defs>
<linearGradient id="paint0_linear_119_379" x1="18.5" y1="0" x2="18.5" y2="29.9543" gradientUnits="userSpaceOnUse">
<stop stop-color="#F8A0CC" stop-opacity="0.8"/>
<stop offset="1" stop-color="#D296FF" stop-opacity="0.8"/>
</linearGradient>
</defs>
</svg>
