<svg width="112" height="110" viewBox="0 0 112 110" fill="none" xmlns="http://www.w3.org/2000/svg">
<path d="M29.9663 104.789C14.4352 104.789 1.79919 92.1533 1.79919 76.6222C1.79919 61.0924 14.4352 48.4564 29.9663 48.4564H49.4663V28.9564C49.4663 13.4253 62.1023 0.789291 77.6321 0.789291C93.1632 0.789291 105.799 13.4253 105.799 28.9564C105.799 44.4875 93.1632 57.1235 77.6321 57.1235H58.1321V76.6235C58.1321 92.1533 45.4961 104.789 29.9663 104.789ZM29.9663 57.1222C19.214 57.1222 10.4663 65.8699 10.4663 76.6222C10.4663 87.3745 19.214 96.1222 29.9663 96.1222C40.7186 96.1222 49.4663 87.3745 49.4663 76.6222V57.1222H29.9663ZM58.1321 48.4564H77.6321C88.3844 48.4564 97.1321 39.7087 97.1321 28.9564C97.1321 18.2041 88.3844 9.45639 77.6321 9.45639C66.8798 9.45639 58.1321 18.2041 58.1321 28.9564V48.4564Z" fill="url(#paint0_linear_119_327)"/>
<path d="M0 19.9268C0.00608317 25.21 2.20925 30.2751 6.12611 34.0108C10.043 37.7466 15.3536 39.8479 20.8929 39.8537H38.4429C39.3295 39.8537 40.1798 39.5178 40.8067 38.9199C41.4336 38.3219 41.7858 37.511 41.7858 36.6654V19.9268C41.7858 14.6419 39.5846 9.57345 35.6664 5.83644C31.7482 2.09943 26.434 3.8147e-06 20.8929 3.8147e-06C15.3518 3.8147e-06 10.0376 2.09943 6.11939 5.83644C2.20121 9.57345 0 14.6419 0 19.9268Z" fill="#F8A0CC"/>
<path d="M106.528 84.3524C106.522 79.0692 104.318 74.0041 100.402 70.2684C96.4847 66.5326 91.1741 64.4313 85.6348 64.4255H68.0848C67.1982 64.4255 66.3479 64.7614 65.721 65.3594C65.0941 65.9573 64.7419 66.7682 64.7419 67.6138V84.3524C64.7419 89.6373 66.9431 94.7058 70.8613 98.4428C74.7795 102.18 80.0937 104.279 85.6348 104.279C91.1759 104.279 96.4901 102.18 100.408 98.4428C104.326 94.7058 106.528 89.6373 106.528 84.3524Z" fill="#D296FF"/>
<defs>
<linearGradient id="paint0_linear_119_327" x1="53.7992" y1="0.789291" x2="53.7992" y2="104.789" gradientUnits="userSpaceOnUse">
<stop stop-color="#F8A0CC"/>
<stop offset="1" stop-color="#D296FF"/>
</linearGradient>
</defs>
</svg>
