<svg width="32" height="30" viewBox="0 0 32 30" fill="none" xmlns="http://www.w3.org/2000/svg">
<path d="M31.8186 28.1317C29.4778 24.1923 25.8705 21.3676 21.6607 20.0285C23.743 18.8218 25.3609 16.9831 26.2658 14.7947C27.1707 12.6063 27.3126 10.1893 26.6698 7.91474C26.0269 5.64023 24.6349 3.63402 22.7073 2.20419C20.7798 0.774371 18.4234 0 16 0C13.5766 0 11.2202 0.774371 9.29267 2.20419C7.36513 3.63402 5.97305 5.64023 5.3302 7.91474C4.68736 10.1893 4.82928 12.6063 5.73419 14.7947C6.63911 16.9831 8.25696 18.8218 10.3393 20.0285C6.12953 21.3661 2.52224 24.1908 0.181419 28.1317C0.0955774 28.2679 0.038639 28.4195 0.0139637 28.5775C-0.0107116 28.7356 -0.00262404 28.8968 0.0377492 29.0517C0.0781224 29.2067 0.149964 29.3521 0.249034 29.4796C0.348104 29.6071 0.472396 29.7139 0.614578 29.7939C0.75676 29.8738 0.91395 29.9252 1.07687 29.9451C1.2398 29.9649 1.40516 29.9528 1.5632 29.9094C1.72123 29.8661 1.86875 29.7923 1.99703 29.6926C2.12532 29.5928 2.23178 29.469 2.31013 29.3286C5.2058 24.4571 10.3239 21.5486 16 21.5486C21.6761 21.5486 26.7942 24.4571 29.6899 29.3286C29.7682 29.469 29.8747 29.5928 30.003 29.6926C30.1313 29.7923 30.2788 29.8661 30.4368 29.9094C30.5948 29.9528 30.7602 29.9649 30.9231 29.9451C31.086 29.9252 31.2432 29.8738 31.3854 29.7939C31.5276 29.7139 31.6519 29.6071 31.751 29.4796C31.85 29.3521 31.9219 29.2067 31.9622 29.0517C32.0026 28.8968 32.0107 28.7356 31.986 28.5775C31.9614 28.4195 31.9044 28.2679 31.8186 28.1317ZM7.39292 10.7763C7.39292 9.11924 7.89772 7.49936 8.84348 6.12153C9.78923 4.74371 11.1335 3.66982 12.7062 3.03568C14.279 2.40153 16.0096 2.23561 17.6792 2.5589C19.3488 2.88218 20.8824 3.68015 22.0861 4.85189C23.2898 6.02364 24.1096 7.51653 24.4417 9.14179C24.7738 10.767 24.6034 12.4517 23.9519 13.9826C23.3005 15.5136 22.1973 16.8221 20.7818 17.7428C19.3664 18.6634 17.7023 19.1548 16 19.1548C13.718 19.1524 11.5302 18.2689 9.91657 16.6982C8.30296 15.1274 7.39536 12.9977 7.39292 10.7763Z" fill="url(#paint0_linear_119_376)"/>
<defs>
<linearGradient id="paint0_linear_119_376" x1="16" y1="0" x2="16" y2="29.9543" gradientUnits="userSpaceOnUse">
<stop stop-color="#F8A0CC" stop-opacity="0.8"/>
<stop offset="1" stop-color="#D296FF" stop-opacity="0.8"/>
</linearGradient>
</defs>
</svg>
