<svg width="37" height="30" viewBox="0 0 37 30" fill="none" xmlns="http://www.w3.org/2000/svg">
<path d="M31.3077 12.254C31.3077 12.6152 31.1578 12.9615 30.8909 13.2168C30.624 13.4722 30.262 13.6156 29.8846 13.6156H22.7692C22.3918 13.6156 22.0298 13.4722 21.763 13.2168C21.4961 12.9615 21.3462 12.6152 21.3462 12.254C21.3462 11.8929 21.4961 11.5466 21.763 11.2913C22.0298 11.0359 22.3918 10.8925 22.7692 10.8925H29.8846C30.262 10.8925 30.624 11.0359 30.8909 11.2913C31.1578 11.5466 31.3077 11.8929 31.3077 12.254ZM29.8846 16.3387H22.7692C22.3918 16.3387 22.0298 16.4822 21.763 16.7375C21.4961 16.9929 21.3462 17.3392 21.3462 17.7003C21.3462 18.0614 21.4961 18.4077 21.763 18.6631C22.0298 18.9184 22.3918 19.0619 22.7692 19.0619H29.8846C30.262 19.0619 30.624 18.9184 30.8909 18.6631C31.1578 18.4077 31.3077 18.0614 31.3077 17.7003C31.3077 17.3392 31.1578 16.9929 30.8909 16.7375C30.624 16.4822 30.262 16.3387 29.8846 16.3387ZM37 2.72312V27.2312C37 27.9534 36.7001 28.6461 36.1664 29.1568C35.6326 29.6674 34.9087 29.9543 34.1538 29.9543H2.84615C2.09131 29.9543 1.36738 29.6674 0.833619 29.1568C0.299862 28.6461 0 27.9534 0 27.2312V2.72312C0 2.0009 0.299862 1.30827 0.833619 0.797584C1.36738 0.286899 2.09131 0 2.84615 0H34.1538C34.9087 0 35.6326 0.286899 36.1664 0.797584C36.7001 1.30827 37 2.0009 37 2.72312ZM34.1538 27.2312V2.72312H2.84615V27.2312H34.1538ZM19.8768 21.4446C19.9712 21.7944 19.9164 22.1658 19.7246 22.477C19.5328 22.7882 19.2196 23.0137 18.854 23.104C18.4884 23.1943 18.1002 23.1419 17.775 22.9583C17.4497 22.7748 17.214 22.4752 17.1196 22.1254C16.6518 20.3792 14.7964 19.0619 12.8059 19.0619C10.8154 19.0619 8.96183 20.3792 8.49221 22.1254C8.39785 22.4752 8.16212 22.7748 7.83686 22.9583C7.5116 23.1419 7.12347 23.1943 6.75784 23.104C6.39221 23.0137 6.07904 22.7882 5.88722 22.477C5.6954 22.1658 5.64064 21.7944 5.735 21.4446C6.19679 19.8001 7.28839 18.382 8.79284 17.4722C7.99337 16.7119 7.44786 15.7415 7.22547 14.6841C7.00309 13.6268 7.11383 12.5301 7.54367 11.533C7.97351 10.536 8.70309 9.68345 9.63992 9.08358C10.5767 8.4837 11.6786 8.16347 12.8059 8.16347C13.9332 8.16347 15.0351 8.4837 15.9719 9.08358C16.9087 9.68345 17.6383 10.536 18.0682 11.533C18.498 12.5301 18.6087 13.6268 18.3864 14.6841C18.164 15.7415 17.6185 16.7119 16.819 17.4722C18.3251 18.3807 19.4177 19.7992 19.8786 21.4446H19.8768ZM12.8077 16.3387C13.3706 16.3387 13.9209 16.179 14.3889 15.8798C14.857 15.5806 15.2218 15.1553 15.4372 14.6577C15.6526 14.1601 15.709 13.6126 15.5992 13.0844C15.4893 12.5561 15.2183 12.0709 14.8202 11.6901C14.4222 11.3092 13.915 11.0499 13.3629 10.9448C12.8108 10.8397 12.2386 10.8937 11.7185 11.0998C11.1985 11.3059 10.7539 11.6549 10.4412 12.1027C10.1285 12.5505 9.96154 13.077 9.96154 13.6156C9.96154 14.3378 10.2614 15.0305 10.7952 15.5411C11.3289 16.0518 12.0528 16.3387 12.8077 16.3387Z" fill="url(#paint0_linear_119_373)"/>
<defs>
<linearGradient id="paint0_linear_119_373" x1="18.5" y1="0" x2="18.5" y2="29.9543" gradientUnits="userSpaceOnUse">
<stop stop-color="#F8A0CC" stop-opacity="0.8"/>
<stop offset="1" stop-color="#D296FF" stop-opacity="0.8"/>
</linearGradient>
</defs>
</svg>
