<svg width="33" height="16" viewBox="0 0 33 16" fill="none" xmlns="http://www.w3.org/2000/svg">
<path d="M32.312 12.1513C32.1675 12.2311 32.0081 12.2824 31.843 12.3025C31.6779 12.3226 31.5104 12.3109 31.3499 12.2683C31.1895 12.2257 31.0393 12.1529 30.908 12.0541C30.7767 11.9553 30.6669 11.8324 30.5847 11.6924L27.5794 6.61376C25.8322 7.75627 23.9048 8.61697 21.8725 9.16227L22.801 14.5499C22.8284 14.7086 22.8232 14.8708 22.7857 15.0275C22.7482 15.1842 22.6791 15.3321 22.5825 15.463C22.4858 15.5938 22.3634 15.705 22.2223 15.79C22.0812 15.8751 21.9242 15.9325 21.7602 15.9588C21.6927 15.9695 21.6245 15.9751 21.5561 15.9756C21.2568 15.9752 20.9673 15.8722 20.7391 15.6848C20.5109 15.4974 20.3587 15.2379 20.3097 14.9523L19.397 9.66249C17.4724 9.92152 15.5199 9.92152 13.5952 9.66249L12.6825 14.9523C12.6334 15.2384 12.4808 15.4983 12.252 15.6858C12.0231 15.8732 11.7329 15.9759 11.433 15.9756C11.363 15.9754 11.2932 15.9697 11.2242 15.9588C11.0601 15.9325 10.9031 15.8751 10.762 15.79C10.6209 15.705 10.4985 15.5938 10.4019 15.463C10.3052 15.3321 10.2362 15.1842 10.1987 15.0275C10.1612 14.8708 10.156 14.7086 10.1834 14.5499L11.1166 9.16227C9.08507 8.61524 7.15878 7.753 5.41285 6.60917L2.41702 11.6924C2.24922 11.9752 1.97214 12.1819 1.64673 12.2671C1.32132 12.3523 0.974244 12.309 0.681849 12.1468C0.389454 11.9845 0.175694 11.7165 0.0875938 11.4018C-0.000506619 11.0871 0.044269 10.7514 0.212071 10.4687L3.37556 5.11463C2.26438 4.18621 1.2426 3.1622 0.322793 2.05519C0.208083 1.93133 0.120677 1.78615 0.0659108 1.62853C0.0111443 1.47091 -0.00983406 1.30415 0.00425668 1.13843C0.0183474 0.972712 0.0672116 0.811507 0.147866 0.664656C0.228521 0.517806 0.339274 0.388392 0.473365 0.284314C0.607456 0.180236 0.762072 0.103679 0.927775 0.0593132C1.09348 0.0149477 1.26679 0.00370529 1.43714 0.026273C1.60748 0.0488407 1.77128 0.104745 1.91854 0.190573C2.06581 0.276401 2.19344 0.390351 2.29365 0.52547C4.91934 3.66752 9.51272 7.40921 16.4945 7.40921C23.4764 7.40921 28.0697 3.66293 30.6954 0.52547C30.7945 0.387585 30.9219 0.270891 31.0696 0.182647C31.2173 0.0944029 31.3822 0.0364964 31.554 0.0125306C31.7258 -0.0114352 31.9009 -0.000947736 32.0684 0.0433405C32.2358 0.0876286 32.3921 0.164771 32.5274 0.269966C32.6627 0.375161 32.7742 0.506161 32.8549 0.654813C32.9356 0.803466 32.9839 0.966591 32.9966 1.13404C33.0093 1.30149 32.9863 1.46968 32.9289 1.62816C32.8716 1.78663 32.7811 1.93199 32.6631 2.05519C31.7433 3.1622 30.7215 4.18621 29.6104 5.11463L32.7739 10.4687C32.8588 10.6082 32.9142 10.7627 32.9369 10.9231C32.9597 11.0836 32.9493 11.2468 32.9063 11.4033C32.8633 11.5598 32.7887 11.7065 32.6867 11.8349C32.5847 11.9633 32.4573 12.0709 32.312 12.1513Z" fill="url(#paint0_linear_119_389)"/>
<defs>
<linearGradient id="paint0_linear_119_389" x1="16.5" y1="0" x2="16.5" y2="15.9756" gradientUnits="userSpaceOnUse">
<stop stop-color="#F8A0CC" stop-opacity="0.8"/>
<stop offset="1" stop-color="#D296FF" stop-opacity="0.8"/>
</linearGradient>
</defs>
</svg>