<svg width="37" height="24" viewBox="0 0 37 24" fill="none" xmlns="http://www.w3.org/2000/svg">
<path d="M36.8936 11.4965C36.8397 11.3782 35.5339 8.56394 32.6309 5.74374C28.7629 1.98597 23.8773 0 18.5 0C13.1227 0 8.23712 1.98597 4.36907 5.74374C1.46611 8.56394 0.154152 11.3826 0.10636 11.4965C0.0362347 11.6497 0 11.8155 0 11.9832C0 12.1509 0.0362347 12.3168 0.10636 12.47C0.160319 12.5883 1.46611 15.401 4.36907 18.2212C8.23712 21.9775 13.1227 23.9635 18.5 23.9635C23.8773 23.9635 28.7629 21.9775 32.6309 18.2212C35.5339 15.401 36.8397 12.5883 36.8936 12.47C36.9638 12.3168 37 12.1509 37 11.9832C37 11.8155 36.9638 11.6497 36.8936 11.4965ZM18.5 21.5671C13.7547 21.5671 9.6092 19.8912 6.17745 16.5872C4.76936 15.2268 3.57139 13.6756 2.62082 11.9817C3.57114 10.2877 4.76913 8.73645 6.17745 7.37626C9.6092 4.07229 13.7547 2.39635 18.5 2.39635C23.2453 2.39635 27.3908 4.07229 30.8225 7.37626C32.2334 8.73612 33.434 10.2874 34.3869 11.9817C33.2753 13.9977 28.433 21.5671 18.5 21.5671ZM18.5 4.79269C17.0364 4.79269 15.6057 5.21432 14.3888 6.00427C13.1719 6.79421 12.2234 7.91698 11.6633 9.23061C11.1032 10.5442 10.9567 11.9897 11.2422 13.3842C11.5277 14.7788 12.2325 16.0597 13.2674 17.0652C14.3023 18.0706 15.6209 18.7553 17.0563 19.0326C18.4918 19.31 19.9797 19.1677 21.3319 18.6235C22.684 18.0794 23.8398 17.158 24.6529 15.9758C25.466 14.7935 25.9 13.4036 25.9 11.9817C25.898 10.0757 25.1177 8.24828 23.7303 6.90051C22.343 5.55273 20.462 4.79468 18.5 4.79269ZM18.5 16.7744C17.5243 16.7744 16.5705 16.4933 15.7592 15.9667C14.9479 15.4401 14.3156 14.6916 13.9422 13.8158C13.5688 12.9401 13.4711 11.9764 13.6615 11.0467C13.8518 10.117 14.3217 9.26306 15.0116 8.59279C15.7015 7.92252 16.5806 7.46606 17.5376 7.28113C18.4945 7.0962 19.4865 7.19112 20.3879 7.55386C21.2894 7.91661 22.0598 8.5309 22.6019 9.31906C23.144 10.1072 23.4333 11.0338 23.4333 11.9817C23.4333 13.2528 22.9136 14.4719 21.9884 15.3707C21.0632 16.2695 19.8084 16.7744 18.5 16.7744Z" fill="url(#paint0_linear_119_385)"/>
<defs>
<linearGradient id="paint0_linear_119_385" x1="18.5" y1="0" x2="18.5" y2="23.9635" gradientUnits="userSpaceOnUse">
<stop stop-color="#F8A0CC" stop-opacity="0.8"/>
<stop offset="1" stop-color="#D296FF" stop-opacity="0.8"/>
</linearGradient>
</defs>
</svg>
