<svg width="31" height="32" viewBox="0 0 31 32" fill="none" xmlns="http://www.w3.org/2000/svg">
<path d="M29.5076 21.4807L22.2055 18.1082L22.1853 18.0987C21.8062 17.9315 21.3927 17.8645 20.9822 17.9035C20.5716 17.9426 20.177 18.0865 19.834 18.3223C19.7936 18.3498 19.7548 18.3797 19.7177 18.4118L15.945 21.7268C13.5549 20.5302 11.0872 18.006 9.92628 15.5745L13.1472 11.6269C13.1782 11.5869 13.2077 11.547 13.2356 11.5039C13.4594 11.1513 13.5952 10.7471 13.6309 10.3274C13.6666 9.90759 13.6011 9.48524 13.4402 9.09789V9.07872L10.1588 1.53974C9.94603 1.03373 9.58021 0.612213 9.11592 0.338106C8.65163 0.0639983 8.11378 -0.0479936 7.58267 0.0188477C5.48236 0.303707 3.55447 1.36684 2.15908 3.00967C0.763685 4.6525 -0.00378347 6.7627 1.40255e-05 8.94613C1.40255e-05 21.6309 10.0131 31.9513 22.3202 31.9513C24.4386 31.9552 26.4859 31.1642 28.0799 29.726C29.6738 28.2877 30.7053 26.3007 30.9816 24.1359C31.0466 23.5887 30.9382 23.0345 30.6725 22.556C30.4069 22.0774 29.9982 21.7003 29.5076 21.4807ZM22.3202 29.3952C17.06 29.3892 12.0169 27.2329 8.29742 23.3992C4.57791 19.5656 2.48578 14.3677 2.48003 8.94613C2.4742 7.38607 3.01951 5.87717 4.01413 4.70121C5.00875 3.52524 6.38467 2.76264 7.88492 2.5558C7.88431 2.56218 7.88431 2.5686 7.88492 2.57498L11.1399 10.0836L7.93607 14.036C7.90355 14.0746 7.87401 14.1157 7.84772 14.159C7.61447 14.5279 7.47763 14.9527 7.45047 15.3921C7.42332 15.8316 7.50676 16.2708 7.69272 16.6672C9.09703 19.6275 11.9909 22.5879 14.8941 24.0337C15.2815 24.2235 15.7101 24.3066 16.138 24.2747C16.5659 24.2427 16.9785 24.0969 17.3353 23.8515C17.3751 23.8239 17.4134 23.7941 17.45 23.7621L21.2181 20.4487L28.5032 23.8116C28.5032 23.8116 28.5156 23.8116 28.5202 23.8116C28.322 25.3601 27.5832 26.7811 26.442 27.8088C25.3009 28.8365 23.8356 29.4004 22.3202 29.3952Z" fill="url(#paint0_linear_119_382)"/>
<defs>
<linearGradient id="paint0_linear_119_382" x1="15.5" y1="0" x2="15.5" y2="31.9513" gradientUnits="userSpaceOnUse">
<stop stop-color="#F8A0CC" stop-opacity="0.8"/>
<stop offset="1" stop-color="#D296FF" stop-opacity="0.8"/>
</linearGradient>
</defs>
</svg>
