<svg width="57" height="62" viewBox="0 0 57 62" fill="none" xmlns="http://www.w3.org/2000/svg">
<path d="M56.1222 0.484925C55.8491 0.270607 55.5311 0.121746 55.1923 0.0496361C54.8536 -0.0224736 54.503 -0.0159385 54.1671 0.0687459L17.6871 9.25339C17.1939 9.37755 16.756 9.6642 16.443 10.0678C16.1301 10.4713 15.9601 10.9686 15.96 11.4807V43.0758C14.058 41.796 11.7859 41.193 9.50461 41.3626C7.22334 41.5322 5.06377 42.4647 3.36902 44.012C1.67427 45.5592 0.54154 47.6324 0.150804 49.9023C-0.239932 52.1721 0.133735 54.5084 1.21244 56.5398C2.29114 58.5713 4.013 60.1815 6.10446 61.1145C8.19592 62.0476 10.537 62.25 12.7558 61.6896C14.9746 61.1292 16.9437 59.8382 18.3505 58.0216C19.7572 56.2051 20.5209 53.9672 20.52 51.6635V27.0515L52.44 19.0149V33.8912C50.538 32.6114 48.2659 32.0083 45.9846 32.178C43.7033 32.3476 41.5438 33.2801 39.849 34.8273C38.1543 36.3746 37.0215 38.4478 36.6308 40.7176C36.2401 42.9875 36.6137 45.3237 37.6924 47.3552C38.7711 49.3867 40.493 50.9968 42.5844 51.9299C44.6759 52.8629 47.017 53.0654 49.2358 52.505C51.4545 51.9446 53.4237 50.6536 54.8305 48.837C56.2372 47.0204 57.0008 44.7825 57 42.4788V2.29602C57.0001 1.94679 56.9211 1.60214 56.7689 1.2883C56.6168 0.974464 56.3956 0.699702 56.1222 0.484925ZM10.26 57.4039C9.13266 57.4039 8.03062 57.0672 7.09326 56.4364C6.1559 55.8057 5.42532 54.9091 4.9939 53.8602C4.56248 52.8113 4.4496 51.6571 4.66954 50.5436C4.88947 49.43 5.43234 48.4072 6.2295 47.6044C7.02666 46.8016 8.04231 46.2549 9.148 46.0334C10.2537 45.8119 11.3998 45.9256 12.4413 46.36C13.4828 46.7945 14.3731 47.5303 14.9994 48.4743C15.6257 49.4183 15.96 50.5281 15.96 51.6635C15.96 53.1859 15.3595 54.646 14.2905 55.7225C13.2216 56.7991 11.7717 57.4039 10.26 57.4039ZM20.52 22.3157V13.2745L52.44 5.23798V14.2791L20.52 22.3157ZM46.74 48.2192C45.6126 48.2192 44.5106 47.8826 43.5733 47.2518C42.6359 46.621 41.9053 45.7245 41.4739 44.6756C41.0425 43.6267 40.9296 42.4725 41.1495 41.3589C41.3695 40.2454 41.9123 39.2226 42.7095 38.4197C43.5067 37.6169 44.5223 37.0702 45.628 36.8487C46.7337 36.6272 47.8798 36.7409 48.9213 37.1754C49.9628 37.6099 50.8531 38.3456 51.4794 39.2896C52.1057 40.2336 52.44 41.3435 52.44 42.4788C52.44 44.0013 51.8395 45.4614 50.7705 46.5379C49.7016 47.6144 48.2517 48.2192 46.74 48.2192Z" fill="url(#paint0_linear_331_128)"/>
<defs>
<linearGradient id="paint0_linear_331_128" x1="28.5" y1="0" x2="28.5" y2="62" gradientUnits="userSpaceOnUse">
<stop stop-color="#F8A0CC"/>
<stop offset="1" stop-color="#D296FF"/>
</linearGradient>
</defs>
</svg>
