<svg width="29" height="35" viewBox="0 0 29 35" fill="none" xmlns="http://www.w3.org/2000/svg">
<path d="M14.5 7.50008C13.1964 7.50007 11.9222 7.86664 10.8383 8.5534C9.75442 9.24017 8.90964 10.2163 8.41079 11.3583C7.91194 12.5004 7.78142 13.7571 8.03573 14.9695C8.29004 16.1819 8.91777 17.2955 9.83952 18.1696C10.7613 19.0437 11.9357 19.6389 13.2142 19.8801C14.4927 20.1213 15.8179 19.9975 17.0222 19.5244C18.2266 19.0514 19.2559 18.2503 19.9801 17.2225C20.7044 16.1947 21.0909 14.9863 21.0909 13.7501C21.0909 12.0925 20.3965 10.5028 19.1605 9.33068C17.9244 8.15856 16.248 7.50008 14.5 7.50008ZM14.5 17.5002C13.7179 17.5002 12.9533 17.2802 12.303 16.8682C11.6527 16.4561 11.1458 15.8704 10.8465 15.1852C10.5472 14.5 10.4689 13.746 10.6214 13.0185C10.774 12.2911 11.1507 11.6229 11.7037 11.0985C12.2568 10.574 12.9614 10.2169 13.7285 10.0722C14.4956 9.92746 15.2907 10.0017 16.0133 10.2856C16.7359 10.5694 17.3536 11.05 17.7881 11.6667C18.2226 12.2834 18.4545 13.0085 18.4545 13.7501C18.4545 14.7447 18.0379 15.6985 17.2963 16.4018C16.5547 17.1051 15.5488 17.5002 14.5 17.5002ZM14.5 0C10.6557 0.00413556 6.9701 1.45413 4.25177 4.03189C1.53344 6.60964 0.00436109 10.1046 0 13.7501C0 18.6564 2.39085 23.8565 6.92045 28.7894C8.95576 31.0184 11.2465 33.0256 13.7503 34.7738C13.9719 34.921 14.236 35 14.5066 35C14.7772 35 15.0413 34.921 15.2629 34.7738C17.7621 33.0248 20.0484 31.0177 22.0795 28.7894C26.6026 23.8565 29 18.6564 29 13.7501C28.9956 10.1046 27.4666 6.60964 24.7482 4.03189C22.0299 1.45413 18.3443 0.00413556 14.5 0ZM14.5 32.1878C11.7763 30.1566 2.63636 22.6955 2.63636 13.7501C2.63636 10.7664 3.88628 7.90491 6.11114 5.79511C8.33601 3.6853 11.3536 2.50003 14.5 2.50003C17.6464 2.50003 20.664 3.6853 22.8889 5.79511C25.1137 7.90491 26.3636 10.7664 26.3636 13.7501C26.3636 22.6924 17.2237 30.1566 14.5 32.1878Z" fill="#676666"/>
</svg>
