<svg width="58" height="50" viewBox="0 0 58 50" fill="none" xmlns="http://www.w3.org/2000/svg">
<path d="M53.5385 0H4.46154C3.27826 0 2.14345 0.478895 1.30675 1.33133C0.470053 2.18377 0 3.33993 0 4.54545V45.4545C0 46.6601 0.470053 47.8162 1.30675 48.6687C2.14345 49.5211 3.27826 50 4.46154 50H53.5385C54.7217 50 55.8565 49.5211 56.6932 48.6687C57.5299 47.8162 58 46.6601 58 45.4545V4.54545C58 3.33993 57.5299 2.18377 56.6932 1.33133C55.8565 0.478895 54.7217 0 53.5385 0ZM53.5385 22.7273H40.1538V4.54545H53.5385V22.7273ZM4.46154 4.54545H35.6923V45.4545H4.46154V4.54545ZM53.5385 45.4545H40.1538V27.2727H53.5385V45.4545ZM43.5 13.6364C43.5 12.9621 43.6962 12.303 44.0639 11.7424C44.4316 11.1818 44.9542 10.7448 45.5656 10.4868C46.1771 10.2287 46.8499 10.1612 47.499 10.2928C48.148 10.4243 48.7443 10.749 49.2122 11.2258C49.6802 11.7025 49.9989 12.31 50.128 12.9713C50.2571 13.6326 50.1909 14.318 49.9376 14.941C49.6843 15.5639 49.2554 16.0963 48.7052 16.4709C48.1549 16.8455 47.508 17.0455 46.8462 17.0455C45.9587 17.0455 45.1076 16.6863 44.4801 16.047C43.8525 15.4076 43.5 14.5405 43.5 13.6364ZM50.1923 36.3636C50.1923 37.0379 49.9961 37.697 49.6284 38.2576C49.2607 38.8182 48.7381 39.2552 48.1267 39.5132C47.5152 39.7713 46.8424 39.8388 46.1934 39.7072C45.5443 39.5757 44.948 39.251 44.4801 38.7742C44.0121 38.2975 43.6934 37.69 43.5643 37.0287C43.4352 36.3674 43.5014 35.682 43.7547 35.059C44.008 34.4361 44.4369 33.9037 44.9871 33.5291C45.5374 33.1545 46.1843 32.9545 46.8462 32.9545C47.7336 32.9545 48.5847 33.3137 49.2122 33.953C49.8398 34.5924 50.1923 35.4595 50.1923 36.3636ZM31.1611 35.7955C30.4392 33.0494 28.7275 30.6817 26.3677 29.1648C27.6209 27.8956 28.476 26.2758 28.8246 24.5109C29.1732 22.7459 28.9996 20.9153 28.3258 19.251C27.652 17.5867 26.5084 16.1637 25.0398 15.1624C23.5713 14.1611 21.844 13.6265 20.0769 13.6265C18.3098 13.6265 16.5826 14.1611 15.114 15.1624C13.6455 16.1637 12.5018 17.5867 11.828 19.251C11.1542 20.9153 10.9806 22.7459 11.3292 24.5109C11.6778 26.2758 12.5329 27.8956 13.7862 29.1648C11.4278 30.6834 9.71667 33.0504 8.99279 35.7955C8.84488 36.3794 8.93071 36.9993 9.2314 37.5187C9.53209 38.0382 10.023 38.4146 10.5962 38.5653C11.1693 38.716 11.7777 38.6286 12.2876 38.3222C12.7975 38.0159 13.167 37.5157 13.3149 36.9318C14.0511 34.0199 16.9566 31.8182 20.0769 31.8182C23.1972 31.8182 26.1056 34.0142 26.8389 36.9318C26.9869 37.5157 27.3564 38.0159 27.8662 38.3222C28.3761 38.6286 28.9845 38.716 29.5577 38.5653C30.1308 38.4146 30.6218 38.0382 30.9224 37.5187C31.2231 36.9993 31.309 36.3794 31.1611 35.7955ZM15.6154 22.7273C15.6154 21.8283 15.877 20.9495 16.3673 20.202C16.8575 19.4545 17.5543 18.8719 18.3696 18.5278C19.1848 18.1838 20.0819 18.0938 20.9473 18.2692C21.8128 18.4445 22.6077 18.8775 23.2317 19.5132C23.8557 20.1488 24.2806 20.9588 24.4527 21.8405C24.6249 22.7222 24.5365 23.6362 24.1988 24.4667C23.8612 25.2973 23.2893 26.0072 22.5556 26.5067C21.8219 27.0061 20.9593 27.2727 20.0769 27.2727C18.8937 27.2727 17.7588 26.7938 16.9221 25.9414C16.0854 25.089 15.6154 23.9328 15.6154 22.7273Z" fill="url(#paint0_linear_331_140)"/>
<defs>
<linearGradient id="paint0_linear_331_140" x1="29" y1="0" x2="29" y2="50" gradientUnits="userSpaceOnUse">
<stop stop-color="#F8A0CC"/>
<stop offset="1" stop-color="#D296FF"/>
</linearGradient>
</defs>
</svg>
