<svg width="50" height="52" viewBox="0 0 50 52" fill="none" xmlns="http://www.w3.org/2000/svg">
<path d="M10.8696 14.5843V2.11238C10.8696 1.56108 11.0986 1.03237 11.5063 0.642549C11.914 0.252726 12.4669 0.0337254 13.0435 0.0337254C13.6201 0.0337254 14.173 0.252726 14.5807 0.642549C14.9884 1.03237 15.2174 1.56108 15.2174 2.11238V14.5843C15.2174 15.1356 14.9884 15.6643 14.5807 16.0541C14.173 16.4439 13.6201 16.6629 13.0435 16.6629C12.4669 16.6629 11.914 16.4439 11.5063 16.0541C11.0986 15.6643 10.8696 15.1356 10.8696 14.5843ZM50 2.11238V49.9213C50 50.4726 49.771 51.0014 49.3633 51.3912C48.9556 51.781 48.4026 52 47.8261 52C47.2495 52 46.6966 51.781 46.2889 51.3912C45.8812 51.0014 45.6522 50.4726 45.6522 49.9213V37.4494H32.6087C32.0321 37.4494 31.4792 37.2304 31.0715 36.8406C30.6638 36.4508 30.4348 35.9221 30.4348 35.3708C30.5357 30.3916 31.1935 25.437 32.3967 20.5916C35.0544 10.071 40.0924 3.01919 46.9701 0.202616C47.3007 0.067219 47.6612 0.0123522 48.0194 0.0429335C48.3776 0.0735147 48.7223 0.188588 49.0225 0.377843C49.3228 0.567097 49.5693 0.82462 49.7399 1.12734C49.9104 1.43006 49.9998 1.76851 50 2.11238ZM45.6522 5.72403C36.9103 12.1081 35.1984 27.659 34.8641 33.2921H45.6522V5.72403ZM23.8832 1.772C23.8406 1.49906 23.7416 1.23695 23.592 1.00098C23.4423 0.765001 23.2451 0.559875 23.0117 0.397564C22.7783 0.235253 22.5134 0.119007 22.2325 0.0556047C21.9516 -0.00779733 21.6603 -0.0170853 21.3756 0.0282824C21.091 0.07365 20.8186 0.172765 20.5744 0.319847C20.3302 0.466928 20.1191 0.659031 19.9533 0.884951C19.7876 1.11087 19.6706 1.36609 19.6091 1.63571C19.5476 1.90533 19.5428 2.18396 19.5951 2.45535L21.7391 14.748C21.7391 16.9531 20.823 19.068 19.1922 20.6273C17.5615 22.1866 15.3497 23.0626 13.0435 23.0626C10.7373 23.0626 8.52549 22.1866 6.89474 20.6273C5.26399 19.068 4.34784 16.9531 4.34784 14.748L6.48915 2.45535C6.54145 2.18396 6.53671 1.90533 6.47521 1.63571C6.41371 1.36609 6.29668 1.11087 6.13095 0.884951C5.96521 0.659031 5.75408 0.466928 5.50988 0.319847C5.26569 0.172765 4.9933 0.07365 4.70862 0.0282824C4.42394 -0.0170853 4.13266 -0.00779733 3.85178 0.0556047C3.57089 0.119007 3.30602 0.235253 3.07261 0.397564C2.8392 0.559875 2.64193 0.765001 2.4923 1.00098C2.34267 1.23695 2.24368 1.49906 2.20111 1.772L0.027194 14.2439C0.00859453 14.3565 -0.000492392 14.4703 2.0558e-05 14.5843C0.00436424 17.5303 1.09762 20.38 3.08662 22.6299C5.07561 24.8797 7.8323 26.3849 10.8696 26.8795V49.9213C10.8696 50.4726 11.0986 51.0014 11.5063 51.3912C11.914 51.781 12.4669 52 13.0435 52C13.6201 52 14.173 51.781 14.5807 51.3912C14.9884 51.0014 15.2174 50.4726 15.2174 49.9213V26.8795C18.2547 26.3849 21.0114 24.8797 23.0004 22.6299C24.9894 20.38 26.0826 17.5303 26.087 14.5843C26.0866 14.4702 26.0766 14.3564 26.0571 14.2439L23.8832 1.772Z" fill="url(#paint0_linear_331_144)"/>
<defs>
<linearGradient id="paint0_linear_331_144" x1="25" y1="0" x2="25" y2="52" gradientUnits="userSpaceOnUse">
<stop stop-color="#F8A0CC"/>
<stop offset="1" stop-color="#D296FF"/>
</linearGradient>
</defs>
</svg>
