<svg width="63" height="60" viewBox="0 0 63 60" fill="none" xmlns="http://www.w3.org/2000/svg">
<path d="M25.5999 0C11.4819 0 0 11.1007 0 24.7207C0 38.4007 11.4819 49.4402 25.5999 49.4402C32.0628 49.4402 37.9612 47.0998 42.479 43.2598L43.9226 44.6402L42.604 45.9598C41.851 46.6798 41.851 47.8202 42.604 48.5402L53.8984 59.4598C54.2749 59.8198 54.7151 60 55.217 60C55.719 60 56.2207 59.8198 56.5345 59.4598L61.5542 54.6C62.2444 53.88 62.2447 52.7405 61.4917 52.0805L50.1973 41.1598C49.8208 40.7998 49.3806 40.6207 48.8787 40.6207C48.3767 40.6207 47.875 40.7998 47.5612 41.1598L46.2438 42.4805L44.8001 41.0402C48.7532 36.6602 51.201 30.9607 51.201 24.7207C51.201 11.1007 39.7179 0 25.5999 0ZM25.5999 3.65977C37.6472 3.65977 47.4362 13.1405 47.4362 24.7805C47.4362 36.4205 37.6472 45.8402 25.5999 45.8402C13.5525 45.8402 3.7648 36.4205 3.7648 24.7805C3.7648 13.1405 13.5525 3.65977 25.5999 3.65977ZM25.6624 11.1598C19.7015 11.1598 14.3685 14.8207 12.3606 20.2207C12.0469 21.0007 12.4858 21.96 13.3643 22.2C13.5525 22.26 13.741 22.3207 13.9293 22.3207C14.6195 22.3207 15.2469 21.9002 15.4979 21.2402C17.0038 17.1002 21.1446 14.2805 25.6624 14.2805C26.5408 14.2805 27.2948 13.5607 27.2948 12.7207C27.2948 11.8807 26.5408 11.1598 25.6624 11.1598ZM13.7405 25.9805C12.8621 25.9805 12.1094 26.6402 12.1094 27.5402V27.7805C12.1721 28.6205 12.8631 29.3402 13.8043 29.3402C14.6827 29.3402 15.4354 28.6205 15.4354 27.7805V27.6C15.4354 26.7 14.7455 25.9805 13.8043 25.9805H13.7405ZM48.9424 45L57.6007 53.4L55.217 55.6805L46.5575 47.2805L48.9424 45Z" fill="url(#paint0_linear_331_94)"/>
<defs>
<linearGradient id="paint0_linear_331_94" x1="31.0322" y1="60" x2="31.0322" y2="0" gradientUnits="userSpaceOnUse">
<stop stop-color="#D296FF"/>
<stop offset="1" stop-color="#F8A0CC"/>
</linearGradient>
</defs>
</svg>
