<svg width="35" height="33" viewBox="0 0 35 33" fill="none" xmlns="http://www.w3.org/2000/svg">
<path d="M32.0833 2.53846H27.7083V1.26923C27.7083 0.93261 27.5547 0.609776 27.2812 0.371749C27.0077 0.133722 26.6368 0 26.25 0C25.8632 0 25.4923 0.133722 25.2188 0.371749C24.9453 0.609776 24.7917 0.93261 24.7917 1.26923V2.53846H10.2083V1.26923C10.2083 0.93261 10.0547 0.609776 9.7812 0.371749C9.50771 0.133722 9.13677 0 8.75 0C8.36323 0 7.99229 0.133722 7.7188 0.371749C7.44531 0.609776 7.29167 0.93261 7.29167 1.26923V2.53846H2.91667C2.14312 2.53846 1.40125 2.80591 0.854272 3.28196C0.307291 3.75801 0 4.40368 0 5.07692V30.4615C0 31.1348 0.307291 31.7804 0.854272 32.2565C1.40125 32.7326 2.14312 33 2.91667 33H32.0833C32.8569 33 33.5987 32.7326 34.1457 32.2565C34.6927 31.7804 35 31.1348 35 30.4615V5.07692C35 4.40368 34.6927 3.75801 34.1457 3.28196C33.5987 2.80591 32.8569 2.53846 32.0833 2.53846ZM7.29167 5.07692V6.34615C7.29167 6.68277 7.44531 7.00561 7.7188 7.24364C7.99229 7.48166 8.36323 7.61538 8.75 7.61538C9.13677 7.61538 9.50771 7.48166 9.7812 7.24364C10.0547 7.00561 10.2083 6.68277 10.2083 6.34615V5.07692H24.7917V6.34615C24.7917 6.68277 24.9453 7.00561 25.2188 7.24364C25.4923 7.48166 25.8632 7.61538 26.25 7.61538C26.6368 7.61538 27.0077 7.48166 27.2812 7.24364C27.5547 7.00561 27.7083 6.68277 27.7083 6.34615V5.07692H32.0833V10.1538H2.91667V5.07692H7.29167ZM32.0833 30.4615H2.91667V12.6923H32.0833V30.4615ZM19.6875 18.4038C19.6875 18.7804 19.5592 19.1485 19.3188 19.4616C19.0785 19.7747 18.7368 20.0187 18.3371 20.1628C17.9374 20.3069 17.4976 20.3446 17.0732 20.2711C16.6489 20.1976 16.2591 20.0163 15.9532 19.7501C15.6473 19.4838 15.4389 19.1446 15.3545 18.7753C15.2701 18.406 15.3134 18.0232 15.479 17.6753C15.6446 17.3274 15.925 17.0301 16.2847 16.8209C16.6444 16.6117 17.0674 16.5 17.5 16.5C18.0802 16.5 18.6366 16.7006 19.0468 17.0576C19.457 17.4147 19.6875 17.8989 19.6875 18.4038ZM27.7083 18.4038C27.7083 18.7804 27.58 19.1485 27.3397 19.4616C27.0993 19.7747 26.7577 20.0187 26.358 20.1628C25.9582 20.3069 25.5184 20.3446 25.0941 20.2711C24.6697 20.1976 24.28 20.0163 23.974 19.7501C23.6681 19.4838 23.4598 19.1446 23.3754 18.7753C23.291 18.406 23.3343 18.0232 23.4998 17.6753C23.6654 17.3274 23.9458 17.0301 24.3055 16.8209C24.6653 16.6117 25.0882 16.5 25.5208 16.5C26.101 16.5 26.6574 16.7006 27.0676 17.0576C27.4779 17.4147 27.7083 17.8989 27.7083 18.4038ZM11.6667 24.75C11.6667 25.1265 11.5384 25.4946 11.298 25.8077C11.0576 26.1208 10.716 26.3648 10.3163 26.5089C9.91657 26.653 9.47674 26.6907 9.05241 26.6173C8.62807 26.5438 8.2383 26.3625 7.93237 26.0962C7.62644 25.83 7.4181 25.4907 7.3337 25.1214C7.24929 24.7521 7.29261 24.3693 7.45818 24.0214C7.62375 23.6735 7.90413 23.3762 8.26386 23.167C8.62359 22.9578 9.04652 22.8462 9.47917 22.8462C10.0593 22.8462 10.6157 23.0467 11.026 23.4038C11.4362 23.7608 11.6667 24.2451 11.6667 24.75ZM19.6875 24.75C19.6875 25.1265 19.5592 25.4946 19.3188 25.8077C19.0785 26.1208 18.7368 26.3648 18.3371 26.5089C17.9374 26.653 17.4976 26.6907 17.0732 26.6173C16.6489 26.5438 16.2591 26.3625 15.9532 26.0962C15.6473 25.83 15.4389 25.4907 15.3545 25.1214C15.2701 24.7521 15.3134 24.3693 15.479 24.0214C15.6446 23.6735 15.925 23.3762 16.2847 23.167C16.6444 22.9578 17.0674 22.8462 17.5 22.8462C18.0802 22.8462 18.6366 23.0467 19.0468 23.4038C19.457 23.7608 19.6875 24.2451 19.6875 24.75ZM27.7083 24.75C27.7083 25.1265 27.58 25.4946 27.3397 25.8077C27.0993 26.1208 26.7577 26.3648 26.358 26.5089C25.9582 26.653 25.5184 26.6907 25.0941 26.6173C24.6697 26.5438 24.28 26.3625 23.974 26.0962C23.6681 25.83 23.4598 25.4907 23.3754 25.1214C23.291 24.7521 23.3343 24.3693 23.4998 24.0214C23.6654 23.6735 23.9458 23.3762 24.3055 23.167C24.6653 22.9578 25.0882 22.8462 25.5208 22.8462C26.101 22.8462 26.6574 23.0467 27.0676 23.4038C27.4779 23.7608 27.7083 24.2451 27.7083 24.75Z" fill="#676666"/>
</svg>
