<svg width="55" height="55" viewBox="0 0 55 55" fill="none" xmlns="http://www.w3.org/2000/svg">
<path d="M36.6668 0C31.8059 0.00471893 27.1455 1.93777 23.7084 5.3749C20.2713 8.81202 18.3382 13.4724 18.3335 18.3332C18.3354 19.1354 18.389 19.9366 18.4939 20.7318L0.794706 44.8706C0.215388 45.6541 -0.0625139 46.62 0.0118279 47.5916C0.0861697 48.5632 0.507786 49.4755 1.19956 50.1618L4.83821 53.8004C5.52446 54.4922 6.43682 54.9138 7.4084 54.9882C8.37999 55.0625 9.34587 54.7846 10.1294 54.2053L34.2707 36.501C35.065 36.6075 35.8653 36.6628 36.6668 36.6665C41.529 36.6665 46.1922 34.735 49.6303 31.2968C53.0685 27.8587 55 23.1955 55 18.3332C55 13.471 53.0685 8.80783 49.6303 5.36968C46.1922 1.93153 41.529 0 36.6668 0ZM50.9259 18.3332C50.9296 21.4112 49.9323 24.4069 48.0843 26.8684L28.1342 6.91571C30.2534 5.33291 32.7711 4.37078 35.4058 4.13688C38.0406 3.90298 40.6884 4.40654 43.0533 5.59125C45.4183 6.77596 47.4071 8.59513 48.7974 10.8454C50.1877 13.0956 50.9247 15.6882 50.9259 18.3332ZM7.7206 50.9257L4.07432 47.2794L19.8969 25.7175C21.751 29.9032 25.0968 33.249 29.2825 35.1031L7.7206 50.9257ZM22.4076 18.3332C22.4035 15.256 23.401 12.261 25.2492 9.80065L45.1968 29.7482C43.0777 31.3302 40.5605 32.2917 37.9264 32.5253C35.2923 32.7589 32.6451 32.2554 30.2807 31.0711C27.9163 29.8868 25.9278 28.0683 24.5375 25.8189C23.1471 23.5694 22.4097 20.9777 22.4076 18.3332ZM21.8092 33.1883C22.1909 33.5702 22.4053 34.0882 22.4053 34.6282C22.4053 35.1682 22.1909 35.6861 21.8092 36.0681L19.7722 38.1051C19.5849 38.3023 19.36 38.4599 19.1109 38.5687C18.8617 38.6776 18.5933 38.7355 18.3214 38.739C18.0496 38.7424 17.7797 38.6915 17.5279 38.589C17.276 38.4866 17.0472 38.3348 16.855 38.1425C16.6627 37.9502 16.5109 37.7214 16.4084 37.4696C16.306 37.2177 16.255 36.9479 16.2585 36.676C16.262 36.4041 16.3199 36.1357 16.4287 35.8866C16.5376 35.6374 16.6952 35.4126 16.8923 35.2253L18.9293 33.1883C19.1184 32.9983 19.3431 32.8476 19.5905 32.7446C19.838 32.6416 20.1033 32.5885 20.3713 32.5883C20.6393 32.588 20.9047 32.6407 21.1523 32.7432C21.3999 32.8457 21.6249 32.9961 21.8143 33.1857L21.8092 33.1883Z" fill="url(#paint0_linear_331_151)"/>
<defs>
<linearGradient id="paint0_linear_331_151" x1="27.5" y1="0" x2="27.5" y2="55" gradientUnits="userSpaceOnUse">
<stop stop-color="#F8A0CC"/>
<stop offset="1" stop-color="#D296FF"/>
</linearGradient>
</defs>
</svg>
