<svg width="22" height="44" viewBox="0 0 22 44" fill="none" xmlns="http://www.w3.org/2000/svg">
<path d="M21.4624 23.4149L3.13109 43.4139C2.96077 43.5997 2.75857 43.7471 2.53605 43.8477C2.31352 43.9482 2.07501 44 1.83415 44C1.59328 44 1.35478 43.9482 1.13225 43.8477C0.90972 43.7471 0.707525 43.5997 0.537208 43.4139C0.366892 43.2281 0.23179 43.0075 0.139615 42.7647C0.0474408 42.522 0 42.2618 0 41.999C0 41.7362 0.0474408 41.476 0.139615 41.2332C0.23179 40.9905 0.366892 40.7699 0.537208 40.5841L17.5738 22L0.537208 3.41594C0.193239 3.04068 -3.62431e-09 2.53171 0 2.00101C3.62431e-09 1.47031 0.193239 0.961345 0.537208 0.586082C0.881178 0.21082 1.3477 3.95403e-09 1.83415 0C2.32059 -3.95403e-09 2.78712 0.21082 3.13109 0.586082L21.4624 20.5851C21.6328 20.7708 21.768 20.9914 21.8603 21.2342C21.9525 21.4769 22 21.7372 22 22C22 22.2628 21.9525 22.5231 21.8603 22.7658C21.768 23.0086 21.6328 23.2292 21.4624 23.4149Z" fill="url(#paint0_linear_3_2202)"/>
<defs>
<linearGradient id="paint0_linear_3_2202" x1="11" y1="0" x2="11" y2="44" gradientUnits="userSpaceOnUse">
<stop stop-color="#F8A0CC"/>
<stop offset="1" stop-color="#D296FF"/>
</linearGradient>
</defs>
</svg>
