<svg width="22" height="44" viewBox="0 0 22 44" fill="none" xmlns="http://www.w3.org/2000/svg">
<path d="M21.4628 40.5841C21.6331 40.7699 21.7682 40.9905 21.8604 41.2332C21.9526 41.476 22 41.7362 22 41.999C22 42.2618 21.9526 42.522 21.8604 42.7647C21.7682 43.0075 21.6331 43.2281 21.4628 43.4139C21.2925 43.5997 21.0903 43.7471 20.8678 43.8477C20.6452 43.9482 20.4067 44 20.1659 44C19.925 44 19.6865 43.9482 19.464 43.8477C19.2414 43.7471 19.0392 43.5997 18.8689 43.4139L0.537631 23.4149C0.367194 23.2292 0.231985 23.0086 0.139734 22.7658C0.0474833 22.5231 0 22.2628 0 22C0 21.7372 0.0474833 21.4769 0.139734 21.2342C0.231985 20.9914 0.367194 20.7708 0.537631 20.5851L18.8689 0.586082C19.2129 0.21082 19.6794 -1.04614e-08 20.1659 0C20.6523 1.04614e-08 21.1188 0.21082 21.4628 0.586082C21.8068 0.961345 22 1.47031 22 2.00101C22 2.53171 21.8068 3.04068 21.4628 3.41594L4.42615 22L21.4628 40.5841Z" fill="url(#paint0_linear_3_2206)"/>
<defs>
<linearGradient id="paint0_linear_3_2206" x1="11" y1="0" x2="11" y2="44" gradientUnits="userSpaceOnUse">
<stop stop-color="#F8A0CC"/>
<stop offset="1" stop-color="#D296FF"/>
</linearGradient>
</defs>
</svg>
