<svg width="51" height="56" viewBox="0 0 51 56" fill="none" xmlns="http://www.w3.org/2000/svg">
<path d="M23.1982 16.5982C25.0311 16.5982 26.8227 16.1115 28.3467 15.1996C29.8706 14.2877 31.0584 12.9915 31.7598 11.475C32.4612 9.95858 32.6447 8.28991 32.2871 6.68004C31.9296 5.07017 31.047 3.59141 29.751 2.43076C28.455 1.27011 26.8037 0.479692 25.0061 0.159469C23.2085 -0.160754 21.3453 0.00359585 19.6519 0.631736C17.9586 1.25988 16.5113 2.32359 15.4931 3.68838C14.4748 5.05316 13.9313 6.65771 13.9313 8.29912C13.9313 10.5002 14.9077 12.6111 16.6455 14.1675C18.3834 15.7239 20.7405 16.5982 23.1982 16.5982ZM23.1982 4.14956C24.1147 4.14956 25.0105 4.39293 25.7725 4.84889C26.5344 5.30485 27.1283 5.95292 27.479 6.71115C27.8297 7.46938 27.9215 8.30372 27.7427 9.10865C27.5639 9.91359 27.1226 10.653 26.4746 11.2333C25.8266 11.8136 25.001 12.2088 24.1022 12.3689C23.2034 12.5291 22.2718 12.4469 21.4251 12.1328C20.5784 11.8187 19.8548 11.2869 19.3457 10.6045C18.8365 9.92209 18.5648 9.11982 18.5648 8.29912C18.5648 7.19859 19.053 6.14313 19.9219 5.36494C20.7908 4.58674 21.9694 4.14956 23.1982 4.14956ZM0.0309239 18.673C0.0309239 17.8523 0.302672 17.05 0.811804 16.3676C1.32094 15.6852 2.04458 15.1534 2.89124 14.8393C3.73789 14.5252 4.66953 14.4431 5.56833 14.6032C6.46714 14.7633 7.29274 15.1585 7.94074 15.7388C8.58875 16.3192 9.03004 17.0585 9.20882 17.8635C9.38761 18.6684 9.29585 19.5027 8.94515 20.261C8.59446 21.0192 8.00057 21.6673 7.2386 22.1232C6.47663 22.5792 5.5808 22.8226 4.66439 22.8226C3.43552 22.8226 2.25698 22.3854 1.38803 21.6072C0.519091 20.829 0.0309239 19.7735 0.0309239 18.673ZM50.4894 22.4621C50.106 22.8918 49.5478 23.1677 48.9374 23.2289C48.327 23.2902 47.7144 23.1319 47.2344 22.7888C46.9013 22.558 40.3681 18.1984 30.0558 22.9471C29.9747 25.5859 29.6843 28.2162 29.187 30.8182L38.5785 37.8206C38.9368 38.0878 39.1968 38.4456 39.3244 38.8472C39.452 39.2489 39.4413 39.6756 39.2938 40.0717L34.6603 52.5204C34.466 53.0425 34.048 53.474 33.4984 53.7201C32.9488 53.9662 32.3126 54.0067 31.7296 53.8327C31.1467 53.6587 30.6648 53.2844 30.39 52.7922C30.1152 52.3 30.07 51.7302 30.2643 51.2081L34.3968 40.1029L28.0026 35.3309C27.5848 36.5925 27.0918 37.8331 26.5257 39.0473C22.5438 47.5384 15.4111 53.2155 5.32755 55.9256C4.7441 56.0694 4.121 56.003 3.59149 55.7407C3.06197 55.4784 2.66809 55.0409 2.49407 54.5219C2.32004 54.0028 2.3797 53.4434 2.66027 52.9632C2.94084 52.4831 3.42005 52.1203 3.99543 51.9524C21.5679 47.2297 24.597 33.2224 25.2572 25.5898C17.4064 30.0532 11.2005 31.1217 7.08537 31.1217C5.14691 31.1275 3.2212 30.8408 1.38911 30.2736C0.899038 30.0818 0.49815 29.7441 0.254466 29.3178C0.0107829 28.8914 -0.0606855 28.4027 0.0521884 27.9345C0.165062 27.4664 0.455326 27.0476 0.873726 26.7492C1.29213 26.4509 1.81289 26.2914 2.34766 26.2978C2.67879 26.2974 3.00599 26.362 3.30621 26.4871C3.30621 26.4871 11.0557 29.257 24.2118 21.2483C39.3546 12.0311 49.6959 19.2332 50.1332 19.5444C50.3705 19.715 50.5681 19.9258 50.7144 20.1648C50.8608 20.4037 50.9532 20.6662 50.9863 20.9371C51.0194 21.2081 50.9925 21.4822 50.9072 21.7439C50.822 22.0055 50.68 22.2496 50.4894 22.4621Z" fill="url(#paint0_linear_331_136)"/>
<defs>
<linearGradient id="paint0_linear_331_136" x1="25.5" y1="0" x2="25.5" y2="56" gradientUnits="userSpaceOnUse">
<stop stop-color="#F8A0CC"/>
<stop offset="1" stop-color="#D296FF"/>
</linearGradient>
</defs>
</svg>
