<svg width="33" height="33" viewBox="0 0 33 33" fill="none" xmlns="http://www.w3.org/2000/svg">
<path d="M33 16.4998C33 16.8976 32.8551 17.2791 32.5973 17.5604C32.3394 17.8417 31.9897 17.9997 31.625 17.9997H16.5004C16.1357 17.9997 15.786 17.8417 15.5281 17.5604C15.2703 17.2791 15.1254 16.8976 15.1254 16.4998C15.1254 16.102 15.2703 15.7205 15.5281 15.4392C15.786 15.1579 16.1357 14.9999 16.5004 14.9999H31.625C31.9897 14.9999 32.3394 15.1579 32.5973 15.4392C32.8551 15.7205 33 16.102 33 16.4998ZM16.5004 6.00047H31.625C31.9897 6.00047 32.3394 5.84244 32.5973 5.56115C32.8551 5.27987 33 4.89836 33 4.50056C33 4.10276 32.8551 3.72125 32.5973 3.43996C32.3394 3.15868 31.9897 3.00065 31.625 3.00065H16.5004C16.1357 3.00065 15.786 3.15868 15.5281 3.43996C15.2703 3.72125 15.1254 4.10276 15.1254 4.50056C15.1254 4.89836 15.2703 5.27987 15.5281 5.56115C15.786 5.84244 16.1357 6.00047 16.5004 6.00047ZM31.625 26.9992H16.5004C16.1357 26.9992 15.786 27.1572 15.5281 27.4385C15.2703 27.7198 15.1254 28.1013 15.1254 28.4991C15.1254 28.8969 15.2703 29.2784 15.5281 29.5597C15.786 29.841 16.1357 29.999 16.5004 29.999H31.625C31.9897 29.999 32.3394 29.841 32.5973 29.5597C32.8551 29.2784 33 28.8969 33 28.4991C33 28.1013 32.8551 27.7198 32.5973 27.4385C32.3394 27.1572 31.9897 26.9992 31.625 26.9992ZM8.65275 0.439557L4.12567 5.37988L2.34852 3.43937C2.09052 3.15793 1.7406 2.99982 1.37573 2.99982C1.01087 2.99982 0.660943 3.15793 0.402943 3.43937C0.144943 3.72082 2.71847e-09 4.10254 0 4.50056C-2.71847e-09 4.89858 0.144943 5.2803 0.402943 5.56175L3.15288 8.56156C3.28058 8.70102 3.43222 8.81165 3.59914 8.88713C3.76606 8.96261 3.94498 9.00146 4.12567 9.00146C4.30636 9.00146 4.48528 8.96261 4.6522 8.88713C4.81912 8.81165 4.97076 8.70102 5.09846 8.56156L10.5983 2.56193C10.8563 2.28048 11.0013 1.89876 11.0013 1.50074C11.0013 1.10272 10.8563 0.721001 10.5983 0.439557C10.3403 0.158113 9.99041 0 9.62554 0C9.26067 0 8.91075 0.158113 8.65275 0.439557ZM8.65275 12.4388L4.12567 17.3791L2.34852 15.4386C2.09052 15.1572 1.7406 14.9991 1.37573 14.9991C1.01087 14.9991 0.660943 15.1572 0.402943 15.4386C0.144943 15.7201 0 16.1018 0 16.4998C0 16.6969 0.0355844 16.8921 0.104721 17.0741C0.173858 17.2562 0.275194 17.4217 0.402943 17.561L3.15288 20.5608C3.28058 20.7003 3.43222 20.8109 3.59914 20.8864C3.76606 20.9619 3.94498 21.0007 4.12567 21.0007C4.30636 21.0007 4.48528 20.9619 4.6522 20.8864C4.81912 20.8109 4.97076 20.7003 5.09846 20.5608L10.5983 14.5612C10.8563 14.2798 11.0013 13.898 11.0013 13.5C11.0013 13.102 10.8563 12.7203 10.5983 12.4388C10.3403 12.1574 9.99041 11.9993 9.62554 11.9993C9.26067 11.9993 8.91075 12.1574 8.65275 12.4388ZM8.65275 24.4381L4.12567 29.3784L2.34852 27.4379C2.22077 27.2986 2.06911 27.188 1.9022 27.1126C1.73529 27.0372 1.5564 26.9984 1.37573 26.9984C1.19507 26.9984 1.01617 27.0372 0.849262 27.1126C0.682351 27.188 0.530691 27.2986 0.402943 27.4379C0.275194 27.5773 0.173858 27.7427 0.104721 27.9248C0.0355844 28.1069 0 28.302 0 28.4991C0 28.6962 0.0355844 28.8913 0.104721 29.0734C0.173858 29.2555 0.275194 29.4209 0.402943 29.5603L3.15288 32.5601C3.28058 32.6996 3.43222 32.8102 3.59914 32.8857C3.76606 32.9612 3.94498 33 4.12567 33C4.30636 33 4.48528 32.9612 4.6522 32.8857C4.81912 32.8102 4.97076 32.6996 5.09846 32.5601L10.5983 26.5605C10.8563 26.279 11.0013 25.8973 11.0013 25.4993C11.0013 25.1013 10.8563 24.7195 10.5983 24.4381C10.3403 24.1566 9.99041 23.9985 9.62554 23.9985C9.26067 23.9985 8.91075 24.1566 8.65275 24.4381Z" fill="url(#paint0_linear_468_236)"/>
<defs>
<linearGradient id="paint0_linear_468_236" x1="0" y1="16.5" x2="33" y2="16.5" gradientUnits="userSpaceOnUse">
<stop stop-color="#F8B7D9"/>
<stop offset="1" stop-color="#D296FF"/>
</linearGradient>
</defs>
</svg>
