<svg width="30" height="30" viewBox="0 0 30 30" fill="none" xmlns="http://www.w3.org/2000/svg">
<path d="M14.9892 3.57224e-07C12.4019 -0.000564752 9.85855 0.669358 7.60668 1.94456C5.35481 3.21976 3.47114 5.05681 2.13901 7.27688C0.806886 9.49695 0.0716897 12.0244 0.00498274 14.6133C-0.0617243 17.2021 0.542331 19.7642 1.75835 22.05L0.12287 26.9611C-0.0126016 27.3677 -0.0322618 27.804 0.0660934 28.2212C0.164449 28.6383 0.376932 29.0198 0.679729 29.3229C0.982525 29.626 1.36367 29.8387 1.78044 29.9371C2.19721 30.0356 2.63314 30.0159 3.03936 29.8803L7.94581 28.2433C9.95561 29.3133 12.1825 29.9109 14.4575 29.9908C16.7325 30.0707 18.9958 29.6308 21.0756 28.7044C23.1554 27.7781 24.997 26.3897 26.4606 24.6445C27.9243 22.8994 28.9715 20.8435 29.5228 18.6328C30.0741 16.4221 30.115 14.1147 29.6424 11.8858C29.1698 9.65693 28.1961 7.5651 26.7953 5.76911C25.3944 3.97312 23.6031 2.52017 21.5575 1.52056C19.5119 0.520945 17.2656 0.000934948 14.9892 3.57224e-07ZM14.9892 27.6923C12.76 27.6938 10.5699 27.1062 8.64035 25.9889C8.49907 25.9069 8.342 25.8559 8.17953 25.8393C8.01707 25.8226 7.85292 25.8407 7.69796 25.8923L2.3088 27.6923L4.10567 22.2981C4.15746 22.1431 4.17577 21.9788 4.15937 21.8162C4.14298 21.6536 4.09226 21.4963 4.01056 21.3548C2.6128 18.9359 2.0516 16.123 2.41403 13.3523C2.77646 10.5816 4.04225 8.00801 6.01506 6.03085C7.98786 4.0537 10.5574 2.78347 13.325 2.4172C16.0927 2.05093 18.9037 2.6091 21.3221 4.00512C23.7404 5.40115 25.631 7.55698 26.7003 10.1382C27.7697 12.7194 27.9582 15.5817 27.2365 18.2811C26.5148 20.9805 24.9233 23.366 22.7089 25.0676C20.4945 26.7692 17.7809 27.6919 14.9892 27.6923Z" fill="#554B50"/>
</svg>
