<svg width="42" height="36" viewBox="0 0 42 36" fill="none" xmlns="http://www.w3.org/2000/svg">
<path d="M42 34.3636C42 34.7976 41.8298 35.2138 41.5269 35.5207C41.2239 35.8276 40.813 36 40.3846 36H1.61538C1.18696 36 0.776078 35.8276 0.473135 35.5207C0.170192 35.2138 0 34.7976 0 34.3636V1.63636C0 1.20237 0.170192 0.786158 0.473135 0.47928C0.776078 0.172402 1.18696 0 1.61538 0C2.04381 0 2.45469 0.172402 2.75763 0.47928C3.06058 0.786158 3.23077 1.20237 3.23077 1.63636V23.8684L13.3956 13.5695C13.5456 13.4174 13.7238 13.2967 13.9199 13.2144C14.116 13.132 14.3262 13.0896 14.5385 13.0896C14.7507 13.0896 14.961 13.132 15.1571 13.2144C15.3532 13.2967 15.5313 13.4174 15.6813 13.5695L21 18.9593L31.6393 8.18182H27.4615C27.0331 8.18182 26.6222 8.00942 26.3193 7.70254C26.0163 7.39566 25.8462 6.97945 25.8462 6.54545C25.8462 6.11146 26.0163 5.69525 26.3193 5.38837C26.6222 5.08149 27.0331 4.90909 27.4615 4.90909H35.5385C35.9669 4.90909 36.3778 5.08149 36.6807 5.38837C36.9837 5.69525 37.1538 6.11146 37.1538 6.54545V14.7273C37.1538 15.1613 36.9837 15.5775 36.6807 15.8844C36.3778 16.1912 35.9669 16.3636 35.5385 16.3636C35.11 16.3636 34.6992 16.1912 34.3962 15.8844C34.0933 15.5775 33.9231 15.1613 33.9231 14.7273V10.4952L22.1429 22.4305C21.9929 22.5826 21.8147 22.7033 21.6186 22.7856C21.4225 22.868 21.2123 22.9104 21 22.9104C20.7877 22.9104 20.5775 22.868 20.3814 22.7856C20.1853 22.7033 20.0071 22.5826 19.8571 22.4305L14.5385 17.0407L3.23077 28.4952V32.7273H40.3846C40.813 32.7273 41.2239 32.8997 41.5269 33.2066C41.8298 33.5134 42 33.9296 42 34.3636Z" fill="#2C2127"/>
</svg>
