<svg width="43" height="43" viewBox="0 0 43 43" fill="none" xmlns="http://www.w3.org/2000/svg">
<path d="M21.5 0C17.2477 0 13.0909 1.26095 9.55525 3.6234C6.01959 5.98585 3.26388 9.34369 1.6366 13.2723C0.00931555 17.2009 -0.416456 21.5238 0.413126 25.6944C1.24271 29.865 3.29038 33.696 6.29721 36.7028C9.30404 39.7096 13.135 41.7573 17.3056 42.5869C21.4762 43.4165 25.7991 42.9907 29.7277 41.3634C33.6563 39.7361 37.0141 36.9804 39.3766 33.4448C41.739 29.9091 43 25.7523 43 21.5C42.994 15.7997 40.7269 10.3346 36.6961 6.30385C32.6654 2.27312 27.2003 0.00601962 21.5 0ZM21.5 39.6923C17.9019 39.6923 14.3846 38.6253 11.3929 36.6263C8.40119 34.6273 6.06944 31.7861 4.69251 28.4619C3.31558 25.1377 2.95531 21.4798 3.65726 17.9509C4.35921 14.4219 6.09186 11.1803 8.6361 8.63609C11.1803 6.09186 14.4219 4.35921 17.9509 3.65725C21.4798 2.9553 25.1377 3.31557 28.4619 4.6925C31.7861 6.06943 34.6274 8.40118 36.6264 11.3929C38.6253 14.3846 39.6923 17.9019 39.6923 21.5C39.6868 26.3232 37.7684 30.9473 34.3579 34.3579C30.9473 37.7684 26.3232 39.6868 21.5 39.6923ZM34.7308 21.5C34.7308 21.9386 34.5565 22.3593 34.2464 22.6694C33.9362 22.9796 33.5156 23.1538 33.0769 23.1538H21.5C21.0614 23.1538 20.6407 22.9796 20.3306 22.6694C20.0204 22.3593 19.8462 21.9386 19.8462 21.5V9.92308C19.8462 9.48445 20.0204 9.06379 20.3306 8.75363C20.6407 8.44347 21.0614 8.26923 21.5 8.26923C21.9386 8.26923 22.3593 8.44347 22.6694 8.75363C22.9796 9.06379 23.1538 9.48445 23.1538 9.92308V19.8462H33.0769C33.5156 19.8462 33.9362 20.0204 34.2464 20.3306C34.5565 20.6407 34.7308 21.0614 34.7308 21.5Z" fill="url(#paint0_linear_468_210)"/>
<defs>
<linearGradient id="paint0_linear_468_210" x1="0" y1="21.5" x2="43" y2="21.5" gradientUnits="userSpaceOnUse">
<stop stop-color="#F8B7D9"/>
<stop offset="1" stop-color="#D296FF"/>
</linearGradient>
</defs>
</svg>
