<svg width="28" height="32" viewBox="0 0 28 32" fill="none" xmlns="http://www.w3.org/2000/svg">
<path d="M13.9855 4.57143C11.2194 4.57143 8.51549 5.37576 6.21558 6.8827C3.91568 8.38965 2.12312 10.5315 1.06459 13.0375C0.00605973 15.5434 -0.2709 18.3009 0.268734 20.9612C0.808368 23.6215 2.14036 26.0652 4.09627 27.9832C6.05218 29.9012 8.54416 31.2073 11.2571 31.7365C13.97 32.2656 16.782 31.9941 19.3375 30.9561C21.8931 29.9181 24.0773 28.1603 25.614 25.905C27.1508 23.6497 27.971 20.9981 27.971 18.2857C27.9668 14.6497 26.492 11.1639 23.8701 8.59284C21.2482 6.02182 17.6934 4.57559 13.9855 4.57143ZM13.9855 29.7143C11.6805 29.7143 9.42716 29.044 7.51057 27.7882C5.59399 26.5324 4.10019 24.7475 3.21808 22.6592C2.33597 20.5709 2.10517 18.273 2.55486 16.0561C3.00456 13.8392 4.11455 11.8028 5.74448 10.2045C7.3744 8.60618 9.45105 7.51771 11.7118 7.07674C13.9726 6.63576 16.3159 6.86209 18.4455 7.72709C20.5751 8.59209 22.3953 10.0569 23.676 11.9363C24.9566 13.8158 25.6401 16.0254 25.6401 18.2857C25.6366 21.3157 24.4076 24.2206 22.2227 26.3632C20.0378 28.5057 17.0754 29.7109 13.9855 29.7143ZM20.6374 11.7629C20.7457 11.869 20.8317 11.995 20.8904 12.1338C20.949 12.2725 20.9792 12.4212 20.9792 12.5714C20.9792 12.7216 20.949 12.8703 20.8904 13.0091C20.8317 13.1478 20.7457 13.2739 20.6374 13.38L14.8101 19.0943C14.7018 19.2005 14.5732 19.2847 14.4318 19.3422C14.2903 19.3996 14.1387 19.4292 13.9855 19.4292C13.8324 19.4292 13.6807 19.3996 13.5393 19.3422C13.3978 19.2847 13.2692 19.2005 13.161 19.0943C13.0527 18.9881 12.9668 18.862 12.9082 18.7233C12.8496 18.5846 12.8194 18.4359 12.8194 18.2857C12.8194 18.1355 12.8496 17.9869 12.9082 17.8481C12.9668 17.7094 13.0527 17.5833 13.161 17.4771L18.9883 11.7629C19.0965 11.6566 19.225 11.5723 19.3665 11.5148C19.508 11.4573 19.6597 11.4277 19.8128 11.4277C19.966 11.4277 20.1176 11.4573 20.2591 11.5148C20.4006 11.5723 20.5291 11.6566 20.6374 11.7629ZM9.32368 1.14286C9.32368 0.839752 9.44647 0.549062 9.66504 0.334735C9.8836 0.120408 10.18 0 10.4891 0H17.4819C17.791 0 18.0874 0.120408 18.306 0.334735C18.5246 0.549062 18.6474 0.839752 18.6474 1.14286C18.6474 1.44596 18.5246 1.73665 18.306 1.95098C18.0874 2.16531 17.791 2.28571 17.4819 2.28571H10.4891C10.18 2.28571 9.8836 2.16531 9.66504 1.95098C9.44647 1.73665 9.32368 1.44596 9.32368 1.14286Z" fill="#554B50"/>
</svg>
