<svg width="53" height="35" viewBox="0 0 53 35" fill="none" xmlns="http://www.w3.org/2000/svg">
<path d="M24.2422 24.0323C26.5008 22.472 28.2156 20.1989 29.1329 17.5491C30.0502 14.8994 30.1214 12.0136 29.336 9.31861C28.5505 6.62361 26.9501 4.26243 24.7714 2.58426C22.5927 0.906082 19.9514 0 17.2381 0C14.5247 0 11.8834 0.906082 9.70473 2.58426C7.52603 4.26243 5.92563 6.62361 5.14018 9.31861C4.35473 12.0136 4.42593 14.8994 5.34326 17.5491C6.26059 20.1989 7.97534 22.472 10.2339 24.0323C6.14835 25.5948 2.65917 28.4862 0.287017 32.2751C0.162345 32.4674 0.075748 32.6835 0.032259 32.9108C-0.01123 33.1381 -0.010743 33.3721 0.0336914 33.5992C0.0781259 33.8263 0.165622 34.042 0.291093 34.2337C0.416563 34.4255 0.577507 34.5894 0.764568 34.716C0.951628 34.8426 1.16107 34.9293 1.38073 34.9712C1.60039 35.0131 1.82588 35.0092 2.04409 34.9599C2.2623 34.9105 2.46888 34.8167 2.65182 34.6837C2.83476 34.5508 2.99042 34.3815 3.10974 34.1856C4.63988 31.7435 6.73368 29.7367 9.20099 28.3475C11.6683 26.9583 14.431 26.2307 17.2381 26.2307C20.0452 26.2307 22.8079 26.9583 25.2752 28.3475C27.7425 29.7367 29.8363 31.7435 31.3664 34.1856C31.6136 34.5668 31.9954 34.8317 32.4293 34.9231C32.8632 35.0145 33.3144 34.9251 33.6852 34.6741C34.0561 34.4231 34.3169 34.0307 34.4111 33.5818C34.5054 33.1329 34.4257 32.6635 34.1891 32.2751C31.817 28.4862 28.3278 25.5948 24.2422 24.0323ZM7.96945 13.1205C7.96945 11.2183 8.51304 9.35875 9.53149 7.77712C10.5499 6.19548 11.9975 4.96275 13.6911 4.2348C15.3847 3.50686 17.2484 3.31639 19.0463 3.6875C20.8442 4.0586 22.4957 4.9746 23.792 6.31967C25.0882 7.66474 25.971 9.37847 26.3286 11.2441C26.6862 13.1098 26.5027 15.0436 25.8012 16.801C25.0996 18.5584 23.9117 20.0605 22.3874 21.1174C20.8632 22.1742 19.0712 22.7382 17.2381 22.7382C14.7807 22.7353 12.4248 21.7211 10.6872 19.9181C8.94964 18.115 7.97223 15.6704 7.96945 13.1205ZM52.2356 34.6949C51.8612 34.9482 51.4053 35.0368 50.968 34.9413C50.5307 34.8458 50.1478 34.574 49.9037 34.1856C48.3754 31.742 46.2818 29.7344 43.814 28.3458C41.3462 26.9572 38.5826 26.2317 35.7753 26.2356C35.3284 26.2356 34.8997 26.0514 34.5837 25.7234C34.2677 25.3955 34.0901 24.9507 34.0901 24.4869C34.0901 24.0231 34.2677 23.5784 34.5837 23.2504C34.8997 22.9225 35.3284 22.7382 35.7753 22.7382C37.1403 22.7369 38.4881 22.4228 39.7225 21.8182C40.9569 21.2137 42.0474 20.3338 42.916 19.2412C43.7847 18.1487 44.4101 16.8706 44.7475 15.4982C45.085 14.1258 45.1261 12.693 44.8681 11.3022C44.61 9.91133 44.0591 8.59681 43.2547 7.45253C42.4503 6.30825 41.4123 5.36244 40.2148 4.68269C39.0173 4.00295 37.6899 3.60604 36.3275 3.52032C34.965 3.43461 33.6012 3.66221 32.3333 4.18687C32.1266 4.2796 31.904 4.32839 31.6788 4.33037C31.4536 4.33234 31.2303 4.28746 31.0222 4.19837C30.814 4.10927 30.6251 3.97778 30.4667 3.81166C30.3083 3.64554 30.1836 3.44816 30.0999 3.23119C30.0163 3.01421 29.9754 2.78204 29.9797 2.54839C29.984 2.31474 30.0334 2.08435 30.1249 1.87085C30.2165 1.65734 30.3484 1.46504 30.5127 1.30531C30.6771 1.14557 30.8707 1.02165 31.082 0.940868C33.9837 -0.25993 37.211 -0.303142 40.1416 0.819568C43.0721 1.94228 45.4981 4.15136 46.9516 7.02065C48.4051 9.88994 48.7831 13.2161 48.0127 16.3575C47.2422 19.499 45.3779 22.233 42.7795 24.0323C46.8651 25.5948 50.3542 28.4862 52.7264 32.2751C52.9705 32.6636 53.0559 33.1367 52.9639 33.5905C52.8718 34.0443 52.6099 34.4415 52.2356 34.6949Z" fill="url(#paint0_linear_468_235)"/>
<defs>
<linearGradient id="paint0_linear_468_235" x1="0" y1="17.5" x2="53" y2="17.5" gradientUnits="userSpaceOnUse">
<stop stop-color="#F8B7D9"/>
<stop offset="1" stop-color="#D296FF"/>
</linearGradient>
</defs>
</svg>
