<svg width="51" height="49" viewBox="0 0 51 49" fill="none" xmlns="http://www.w3.org/2000/svg">
<path d="M47.0769 0H3.92314C2.88268 0 1.88483 0.430207 1.14911 1.19598C0.413391 1.96175 6.83089e-05 3.00037 6.83089e-05 4.08333V44.9167C-0.0043644 45.695 0.207026 46.4581 0.608881 47.1145C1.01074 47.7708 1.58599 48.2926 2.26564 48.6172C2.785 48.8682 3.35053 48.9988 3.92314 49C4.84409 48.9977 5.73449 48.6559 6.43636 48.0353L6.45843 48.0174L14.4664 40.8333H47.0769C48.1174 40.8333 49.1152 40.4031 49.851 39.6374C50.5867 38.8716 51 37.833 51 36.75V4.08333C51 3.00037 50.5867 1.96175 49.851 1.19598C49.1152 0.430207 48.1174 0 47.0769 0ZM47.0769 36.75H13.7308C13.2598 36.7503 12.8047 36.9269 12.4485 37.2477L3.92314 44.9167V4.08333H47.0769V36.75ZM15.6924 16.3333C15.6924 15.7919 15.899 15.2725 16.2669 14.8897C16.6347 14.5068 17.1337 14.2917 17.6539 14.2917H33.3462C33.8664 14.2917 34.3653 14.5068 34.7332 14.8897C35.1011 15.2725 35.3077 15.7919 35.3077 16.3333C35.3077 16.8748 35.1011 17.3941 34.7332 17.777C34.3653 18.1599 33.8664 18.375 33.3462 18.375H17.6539C17.1337 18.375 16.6347 18.1599 16.2669 17.777C15.899 17.3941 15.6924 16.8748 15.6924 16.3333ZM15.6924 24.5C15.6924 23.9585 15.899 23.4392 16.2669 23.0563C16.6347 22.6734 17.1337 22.4583 17.6539 22.4583H33.3462C33.8664 22.4583 34.3653 22.6734 34.7332 23.0563C35.1011 23.4392 35.3077 23.9585 35.3077 24.5C35.3077 25.0415 35.1011 25.5608 34.7332 25.9437C34.3653 26.3266 33.8664 26.5417 33.3462 26.5417H17.6539C17.1337 26.5417 16.6347 26.3266 16.2669 25.9437C15.899 25.5608 15.6924 25.0415 15.6924 24.5Z" fill="url(#paint0_linear_418_4)"/>
<defs>
<linearGradient id="paint0_linear_418_4" x1="0" y1="24.5" x2="51" y2="24.5" gradientUnits="userSpaceOnUse">
<stop stop-color="#F8B7D9"/>
<stop offset="1" stop-color="#D296FF"/>
</linearGradient>
</defs>
</svg>
