<svg width="28" height="34" viewBox="0 0 28 34" fill="none" xmlns="http://www.w3.org/2000/svg">
<path d="M13.9855 7.28579C12.7282 7.28579 11.4991 7.64187 10.4537 8.30902C9.40831 8.97616 8.59351 9.9244 8.11236 11.0338C7.63121 12.1432 7.50532 13.364 7.75061 14.5418C7.9959 15.7195 8.60135 16.8014 9.4904 17.6505C10.3794 18.4996 11.5122 19.0778 12.7453 19.3121C13.9785 19.5464 15.2567 19.4261 16.4183 18.9666C17.5799 18.5071 18.5727 17.7289 19.2712 16.7304C19.9697 15.732 20.3426 14.5581 20.3426 13.3573C20.3426 11.747 19.6728 10.2027 18.4806 9.06409C17.2885 7.92546 15.6715 7.28579 13.9855 7.28579ZM13.9855 17.0002C13.2311 17.0002 12.4937 16.7865 11.8664 16.3862C11.2392 15.9859 10.7503 15.417 10.4616 14.7514C10.1729 14.0857 10.0974 13.3532 10.2446 12.6466C10.3917 11.9399 10.755 11.2908 11.2884 10.7814C11.8219 10.2719 12.5015 9.92494 13.2414 9.78438C13.9813 9.64382 14.7482 9.71596 15.4452 9.99168C16.1421 10.2674 16.7378 10.7343 17.1569 11.3334C17.576 11.9325 17.7997 12.6368 17.7997 13.3573C17.7997 14.3234 17.3979 15.25 16.6826 15.9332C15.9673 16.6164 14.9971 17.0002 13.9855 17.0002ZM13.9855 0C10.2776 0.0040174 6.72279 1.41259 4.10091 3.91669C1.47903 6.4208 0.00420635 9.81594 0 13.3573C0 18.1234 2.30602 23.1749 6.6749 27.9668C8.63799 30.1321 10.8474 32.082 13.2624 33.7803C13.4762 33.9233 13.7309 34 13.9919 34C14.2529 34 14.5076 33.9233 14.7213 33.7803C17.1319 32.0813 19.337 30.1315 21.2961 27.9668C25.6587 23.1749 27.971 18.1234 27.971 13.3573C27.9668 9.81594 26.492 6.4208 23.8701 3.91669C21.2482 1.41259 17.6934 0.0040174 13.9855 0ZM13.9855 31.2682C11.3585 29.2949 2.54282 22.0471 2.54282 13.3573C2.54282 10.4588 3.74839 7.67906 5.89431 5.62953C8.04023 3.58001 10.9507 2.4286 13.9855 2.4286C17.0203 2.4286 19.9308 3.58001 22.0767 5.62953C24.2226 7.67906 25.4282 10.4588 25.4282 13.3573C25.4282 22.0441 16.6126 29.2949 13.9855 31.2682Z" fill="#554B50"/>
</svg>
