<svg width="30" height="30" viewBox="0 0 30 30" fill="none" xmlns="http://www.w3.org/2000/svg">
<path d="M14.9845 0C12.0208 0 9.12374 0.879735 6.65955 2.52796C4.19537 4.17618 2.27477 6.51886 1.14063 9.25975C0.00649257 12.0006 -0.29025 15.0166 0.287929 17.9264C0.866109 20.8361 2.29324 23.5088 4.38886 25.6066C6.48448 27.7044 9.15445 29.133 12.0612 29.7118C14.9679 30.2906 17.9807 29.9935 20.7188 28.8582C23.4568 27.7229 25.7971 25.8003 27.4436 23.3335C29.0901 20.8668 29.969 17.9667 29.969 15C29.9648 11.023 28.3847 7.21017 25.5755 4.39804C22.7662 1.5859 18.9573 0.00419974 14.9845 0ZM14.9845 27.6923C12.4768 27.6923 10.0254 26.9479 7.94031 25.5533C5.85523 24.1586 4.23011 22.1763 3.27046 19.8571C2.3108 17.5379 2.05971 14.9859 2.54894 12.5239C3.03817 10.0618 4.24574 7.80023 6.01895 6.02518C7.79217 4.25013 10.0514 3.04131 12.5109 2.55157C14.9704 2.06184 17.5198 2.31319 19.8366 3.27384C22.1534 4.23449 24.1336 5.86129 25.5268 7.94853C26.92 10.0358 27.6637 12.4897 27.6637 15C27.6598 18.365 26.3228 21.5912 23.9458 23.9706C21.5688 26.35 18.346 27.6885 14.9845 27.6923ZM24.2057 15C24.2057 15.306 24.0843 15.5995 23.8681 15.8159C23.6519 16.0323 23.3588 16.1538 23.053 16.1538H14.9845C14.6788 16.1538 14.3856 16.0323 14.1694 15.8159C13.9533 15.5995 13.8318 15.306 13.8318 15V6.92308C13.8318 6.61706 13.9533 6.32357 14.1694 6.10718C14.3856 5.8908 14.6788 5.76923 14.9845 5.76923C15.2902 5.76923 15.5834 5.8908 15.7995 6.10718C16.0157 6.32357 16.1371 6.61706 16.1371 6.92308V13.8462H23.053C23.3588 13.8462 23.6519 13.9677 23.8681 14.1841C24.0843 14.4005 24.2057 14.694 24.2057 15Z" fill="#554B50"/>
</svg>
