<svg width="49" height="49" viewBox="0 0 49 49" fill="none" xmlns="http://www.w3.org/2000/svg">
<path d="M24.5 0C19.6544 0 14.9175 1.4369 10.8885 4.12899C6.85953 6.82109 3.71931 10.6475 1.86496 15.1243C0.0106155 19.601 -0.474566 24.5272 0.470772 29.2797C1.41611 34.0322 3.74951 38.3977 7.17589 41.8241C10.6023 45.2505 14.9678 47.5839 19.7203 48.5292C24.4728 49.4746 29.399 48.9894 33.8757 47.135C38.3525 45.2807 42.1789 42.1405 44.871 38.1115C47.5631 34.0825 49 29.3456 49 24.5C48.9931 18.0043 46.4097 11.7766 41.8165 7.18346C37.2234 2.5903 30.9957 0.00685957 24.5 0ZM45.2308 24.5C45.2328 27.1596 44.7209 29.7946 43.7231 32.2599L33.1928 25.7839C32.7451 25.5076 32.2442 25.3286 31.7228 25.2586L26.3469 24.533C25.6062 24.4364 24.8534 24.5606 24.1829 24.8899C23.5124 25.2193 22.954 25.7393 22.5777 26.3846H20.5235L19.6283 24.533C19.3808 24.0174 19.0186 23.5653 18.5694 23.2113C18.1203 22.8572 17.5961 22.6107 17.0369 22.4905L15.1523 22.083L16.9945 18.8461H20.931C21.568 18.8449 22.1944 18.6828 22.752 18.375L25.6378 16.7825C25.8914 16.6412 26.1284 16.4721 26.3446 16.2784L32.6839 10.5444C33.3195 9.97482 33.742 9.20559 33.8816 8.36362C34.0212 7.52165 33.8696 6.65723 33.4519 5.91298L33.3671 5.75985C36.9144 7.44187 39.912 10.0954 42.0119 13.4125C44.1118 16.7295 45.2279 20.5741 45.2308 24.5ZM28.1067 4.0849L30.1539 7.75048L23.8145 13.4844L20.931 15.0769H16.9945C16.3319 15.0759 15.6808 15.2496 15.1068 15.5805C14.5327 15.9114 14.056 16.3877 13.7247 16.9615L11.6681 20.5494L9.27703 14.1794L11.8542 8.085C14.1354 6.3224 16.7596 5.05571 19.5587 4.36607C22.3578 3.67644 25.2701 3.57907 28.109 4.08019L28.1067 4.0849ZM3.76924 24.5C3.76609 21.4187 4.45355 18.3759 5.78107 15.5952L8.45251 22.7261C8.67514 23.3165 9.04243 23.8416 9.5207 24.2532C9.99897 24.6648 10.5729 24.9497 11.1899 25.0819L16.2383 26.1679L17.1359 28.0336C17.4474 28.6682 17.9301 29.203 18.5296 29.5777C19.129 29.9524 19.8213 30.1519 20.5282 30.1538H20.8768L19.1736 33.9772C18.8735 34.6505 18.7774 35.3969 18.8971 36.1242C19.0169 36.8515 19.3473 37.5277 19.8474 38.0692L19.8803 38.1022L24.5 42.8609L24.043 45.2166C18.629 45.0906 13.4787 42.8538 9.69099 38.9833C5.9033 35.1129 3.77822 29.9154 3.76924 24.5ZM27.9347 44.9434L28.2009 43.5747C28.3103 42.9932 28.2821 42.3941 28.1185 41.8255C27.9548 41.2569 27.6604 40.7345 27.2586 40.3001C27.247 40.2897 27.236 40.2787 27.2256 40.2672L22.6154 35.5109L25.8428 28.2692L31.2187 28.9948L41.9892 35.6192C40.4288 38.0698 38.3717 40.1658 35.9509 41.7719C33.53 43.3779 30.7991 44.4584 27.9347 44.9434Z" fill="url(#paint0_linear_418_50)"/>
<defs>
<linearGradient id="paint0_linear_418_50" x1="0" y1="24.5" x2="49" y2="24.5" gradientUnits="userSpaceOnUse">
<stop stop-color="#F8B7D9"/>
<stop offset="1" stop-color="#D296FF"/>
</linearGradient>
</defs>
</svg>
