<svg width="47" height="54" viewBox="0 0 47 54" fill="none" xmlns="http://www.w3.org/2000/svg">
<path d="M43.0833 4.15385H37.2083V2.07692C37.2083 1.52609 37.002 0.997815 36.6348 0.608317C36.2675 0.218818 35.7694 0 35.25 0C34.7306 0 34.2325 0.218818 33.8652 0.608317C33.498 0.997815 33.2917 1.52609 33.2917 2.07692V4.15385H13.7083V2.07692C13.7083 1.52609 13.502 0.997815 13.1348 0.608317C12.7675 0.218818 12.2694 0 11.75 0C11.2306 0 10.7325 0.218818 10.3652 0.608317C9.99799 0.997815 9.79167 1.52609 9.79167 2.07692V4.15385H3.91667C2.8779 4.15385 1.88168 4.59148 1.14716 5.37048C0.412647 6.14948 0 7.20602 0 8.30769V49.8462C0 50.9478 0.412647 52.0044 1.14716 52.7834C1.88168 53.5624 2.8779 54 3.91667 54H43.0833C44.1221 54 45.1183 53.5624 45.8528 52.7834C46.5874 52.0044 47 50.9478 47 49.8462V8.30769C47 7.20602 46.5874 6.14948 45.8528 5.37048C45.1183 4.59148 44.1221 4.15385 43.0833 4.15385ZM43.0833 49.8462H3.91667V8.30769H9.79167V10.3846C9.79167 10.9354 9.99799 11.4637 10.3652 11.8532C10.7325 12.2427 11.2306 12.4615 11.75 12.4615C12.2694 12.4615 12.7675 12.2427 13.1348 11.8532C13.502 11.4637 13.7083 10.9354 13.7083 10.3846V8.30769H33.2917V10.3846C33.2917 10.9354 33.498 11.4637 33.8652 11.8532C34.2325 12.2427 34.7306 12.4615 35.25 12.4615C35.7694 12.4615 36.2675 12.2427 36.6348 11.8532C37.002 11.4637 37.2083 10.9354 37.2083 10.3846V8.30769H43.0833V49.8462ZM35.4018 25.3488L28.0972 24.7491L25.2992 17.8693C25.148 17.4962 24.897 17.1783 24.5772 16.9549C24.2574 16.7315 23.8829 16.6125 23.5 16.6125C23.1171 16.6125 22.7426 16.7315 22.4228 16.9549C22.103 17.1783 21.852 17.4962 21.7008 17.8693L18.9028 24.7491L11.5982 25.3488C11.2095 25.3813 10.8388 25.5362 10.5335 25.7935C10.2283 26.0509 10.0024 26.399 9.88486 26.7933C9.76732 27.1876 9.76346 27.6102 9.87376 28.0069C9.98407 28.4035 10.2035 28.7562 10.504 29.0198L16.0167 33.8461L14.3374 41.04C14.2454 41.4366 14.2657 41.8533 14.3957 42.2378C14.5258 42.6222 14.7599 42.9575 15.0687 43.2016C15.3775 43.4457 15.7474 43.5879 16.1319 43.6102C16.5165 43.6325 16.8988 43.5341 17.2309 43.3272L23.5 39.4148L29.7691 43.3272C30.1012 43.5341 30.4835 43.6325 30.8681 43.6102C31.2526 43.5879 31.6225 43.4457 31.9313 43.2016C32.2401 42.9575 32.4742 42.6222 32.6043 42.2378C32.7343 41.8533 32.7546 41.4366 32.6626 41.04L30.9833 33.8461L36.496 29.0198C36.7965 28.7562 37.0159 28.4035 37.1262 28.0069C37.2365 27.6102 37.2327 27.1876 37.1151 26.7933C36.9976 26.399 36.7717 26.0509 36.4665 25.7935C36.1612 25.5362 35.7905 25.3813 35.4018 25.3488ZM27.5415 31.4758C27.2566 31.7247 27.0439 32.0539 26.9278 32.4256C26.8118 32.7972 26.7971 33.196 26.8855 33.5761L27.7422 37.2418L24.4939 35.2142C24.1927 35.0261 23.8495 34.9269 23.5 34.9269C23.1505 34.9269 22.8073 35.0261 22.5061 35.2142L19.2578 37.2418L20.1145 33.5761C20.2029 33.196 20.1882 32.7972 20.0722 32.4256C19.9561 32.0539 19.7434 31.7247 19.4585 31.4758L16.7389 29.0925L20.3838 28.7939C20.7394 28.765 21.0807 28.6336 21.371 28.414C21.6614 28.1944 21.8897 27.8949 22.0312 27.5478L23.5 23.9339L24.9688 27.5478C25.1103 27.8949 25.3386 28.1944 25.629 28.414C25.9193 28.6336 26.2606 28.765 26.6162 28.7939L30.2611 29.0925L27.5415 31.4758Z" fill="url(#paint0_linear_418_40)"/>
<defs>
<linearGradient id="paint0_linear_418_40" x1="0" y1="27" x2="47" y2="27" gradientUnits="userSpaceOnUse">
<stop stop-color="#F8B7D9"/>
<stop offset="1" stop-color="#D296FF"/>
</linearGradient>
</defs>
</svg>
