<svg width="28" height="31" viewBox="0 0 28 31" fill="none" xmlns="http://www.w3.org/2000/svg">
<path d="M25.6401 2.38462H22.1437V1.19231C22.1437 0.876088 22.0209 0.57282 21.8024 0.349219C21.5838 0.125618 21.2874 0 20.9783 0C20.6692 0 20.3727 0.125618 20.1542 0.349219C19.9356 0.57282 19.8128 0.876088 19.8128 1.19231V2.38462H8.15822V1.19231C8.15822 0.876088 8.03543 0.57282 7.81686 0.349219C7.5983 0.125618 7.30186 0 6.99276 0C6.68366 0 6.38722 0.125618 6.16865 0.349219C5.95009 0.57282 5.8273 0.876088 5.8273 1.19231V2.38462H2.33092C1.71272 2.38462 1.11984 2.63585 0.68271 3.08305C0.245578 3.53026 0 4.13679 0 4.76923V28.6154C0 29.2478 0.245578 29.8544 0.68271 30.3016C1.11984 30.7488 1.71272 31 2.33092 31H25.6401C26.2583 31 26.8512 30.7488 27.2883 30.3016C27.7255 29.8544 27.971 29.2478 27.971 28.6154V4.76923C27.971 4.13679 27.7255 3.53026 27.2883 3.08305C26.8512 2.63585 26.2583 2.38462 25.6401 2.38462ZM5.8273 4.76923V5.96154C5.8273 6.27776 5.95009 6.58103 6.16865 6.80463C6.38722 7.02823 6.68366 7.15385 6.99276 7.15385C7.30186 7.15385 7.5983 7.02823 7.81686 6.80463C8.03543 6.58103 8.15822 6.27776 8.15822 5.96154V4.76923H19.8128V5.96154C19.8128 6.27776 19.9356 6.58103 20.1542 6.80463C20.3727 7.02823 20.6692 7.15385 20.9783 7.15385C21.2874 7.15385 21.5838 7.02823 21.8024 6.80463C22.0209 6.58103 22.1437 6.27776 22.1437 5.96154V4.76923H25.6401V9.53846H2.33092V4.76923H5.8273ZM25.6401 28.6154H2.33092V11.9231H25.6401V28.6154ZM15.7337 17.2885C15.7337 17.6422 15.6312 17.988 15.4391 18.2821C15.247 18.5762 14.974 18.8054 14.6545 18.9408C14.3351 19.0761 13.9836 19.1116 13.6445 19.0426C13.3053 18.9736 12.9938 18.8032 12.7494 18.5531C12.5049 18.303 12.3384 17.9843 12.2709 17.6374C12.2035 17.2904 12.2381 16.9308 12.3704 16.604C12.5027 16.2772 12.7268 15.9979 13.0143 15.8014C13.3018 15.6049 13.6398 15.5 13.9855 15.5C14.4492 15.5 14.8938 15.6884 15.2217 16.0238C15.5495 16.3592 15.7337 16.8141 15.7337 17.2885ZM22.1437 17.2885C22.1437 17.6422 22.0412 17.988 21.8491 18.2821C21.657 18.5762 21.384 18.8054 21.0645 18.9408C20.7451 19.0761 20.3936 19.1116 20.0545 19.0426C19.7154 18.9736 19.4039 18.8032 19.1594 18.5531C18.9149 18.303 18.7484 17.9843 18.6809 17.6374C18.6135 17.2904 18.6481 16.9308 18.7804 16.604C18.9127 16.2772 19.1368 15.9979 19.4243 15.8014C19.7118 15.6049 20.0498 15.5 20.3955 15.5C20.8592 15.5 21.3038 15.6884 21.6317 16.0238C21.9595 16.3592 22.1437 16.8141 22.1437 17.2885ZM9.32368 23.25C9.32368 23.6037 9.22115 23.9495 9.02905 24.2436C8.83696 24.5377 8.56393 24.767 8.24449 24.9023C7.92505 25.0377 7.57355 25.0731 7.23443 25.0041C6.89532 24.9351 6.58382 24.7648 6.33933 24.5146C6.09484 24.2645 5.92834 23.9458 5.86089 23.5989C5.79343 23.252 5.82805 22.8924 5.96037 22.5656C6.09269 22.2388 6.31676 21.9595 6.60425 21.7629C6.89173 21.5664 7.22973 21.4615 7.57549 21.4615C8.03914 21.4615 8.48379 21.65 8.81164 21.9854C9.13949 22.3208 9.32368 22.7757 9.32368 23.25ZM15.7337 23.25C15.7337 23.6037 15.6312 23.9495 15.4391 24.2436C15.247 24.5377 14.974 24.767 14.6545 24.9023C14.3351 25.0377 13.9836 25.0731 13.6445 25.0041C13.3053 24.9351 12.9938 24.7648 12.7494 24.5146C12.5049 24.2645 12.3384 23.9458 12.2709 23.5989C12.2035 23.252 12.2381 22.8924 12.3704 22.5656C12.5027 22.2388 12.7268 21.9595 13.0143 21.7629C13.3018 21.5664 13.6398 21.4615 13.9855 21.4615C14.4492 21.4615 14.8938 21.65 15.2217 21.9854C15.5495 22.3208 15.7337 22.7757 15.7337 23.25ZM22.1437 23.25C22.1437 23.6037 22.0412 23.9495 21.8491 24.2436C21.657 24.5377 21.384 24.767 21.0645 24.9023C20.7451 25.0377 20.3936 25.0731 20.0545 25.0041C19.7154 24.9351 19.4039 24.7648 19.1594 24.5146C18.9149 24.2645 18.7484 23.9458 18.6809 23.5989C18.6135 23.252 18.6481 22.8924 18.7804 22.5656C18.9127 22.2388 19.1368 21.9595 19.4243 21.7629C19.7118 21.5664 20.0498 21.4615 20.3955 21.4615C20.8592 21.4615 21.3038 21.65 21.6317 21.9854C21.9595 22.3208 22.1437 22.7757 22.1437 23.25Z" fill="#554B50"/>
</svg>
