<svg width="42" height="52" viewBox="0 0 42 52" fill="none" xmlns="http://www.w3.org/2000/svg">
<path d="M21 11.143C19.1121 11.143 17.2666 11.6876 15.6968 12.7079C14.1271 13.7282 12.9036 15.1785 12.1811 16.8753C11.4587 18.572 11.2696 20.4391 11.638 22.2403C12.0063 24.0416 12.9154 25.6962 14.2503 26.9948C15.5853 28.2935 17.2861 29.1779 19.1378 29.5362C20.9894 29.8945 22.9087 29.7106 24.6529 29.0077C26.3971 28.3049 27.8879 27.1147 28.9368 25.5877C29.9856 24.0606 30.5455 22.2653 30.5455 20.4288C30.5455 17.966 29.5398 15.6041 27.7497 13.8627C25.9595 12.1213 23.5316 11.143 21 11.143ZM21 26.0003C19.8673 26.0003 18.7599 25.6735 17.8181 25.0613C16.8763 24.4491 16.1422 23.5789 15.7087 22.5609C15.2752 21.5428 15.1618 20.4226 15.3828 19.3418C15.6038 18.2611 16.1492 17.2683 16.9502 16.4891C17.7512 15.71 18.7717 15.1793 19.8827 14.9643C20.9936 14.7494 22.1452 14.8597 23.1917 15.2814C24.2383 15.7031 25.1327 16.4172 25.7621 17.3334C26.3914 18.2497 26.7273 19.3268 26.7273 20.4288C26.7273 21.9064 26.1239 23.3236 25.0498 24.3684C23.9757 25.4133 22.519 26.0003 21 26.0003ZM21 0C15.4324 0.00614426 10.0946 2.16043 6.15773 5.99024C2.22084 9.82004 0.00631607 15.0126 0 20.4288C0 27.7181 3.46261 35.4439 10.0227 42.7727C12.9704 46.0844 16.288 49.0665 19.9142 51.6639C20.2352 51.8827 20.6176 52 21.0095 52C21.4015 52 21.7839 51.8827 22.1049 51.6639C25.7244 49.0655 29.0356 46.0834 31.9773 42.7727C38.5278 35.4439 42 27.7181 42 20.4288C41.9937 15.0126 39.7792 9.82004 35.8423 5.99024C31.9054 2.16043 26.5676 0.00614426 21 0ZM21 47.8219C17.0553 44.804 3.81818 33.7191 3.81818 20.4288C3.81818 15.9958 5.6284 11.7444 8.85062 8.60987C12.0728 5.4753 16.4431 3.71432 21 3.71432C25.5569 3.71432 29.9272 5.4753 33.1494 8.60987C36.3716 11.7444 38.1818 15.9958 38.1818 20.4288C38.1818 33.7144 24.9447 44.804 21 47.8219Z" fill="url(#paint0_linear_418_46)"/>
<defs>
<linearGradient id="paint0_linear_418_46" x1="0" y1="26" x2="42" y2="26" gradientUnits="userSpaceOnUse">
<stop stop-color="#F8B7D9"/>
<stop offset="1" stop-color="#D296FF"/>
</linearGradient>
</defs>
</svg>
