<svg width="32" height="33" viewBox="0 0 32 33" fill="none" xmlns="http://www.w3.org/2000/svg">
<path d="M29.3333 2.53846H25.3333V1.26923C25.3333 0.93261 25.1929 0.609776 24.9428 0.371749C24.6928 0.133722 24.3536 0 24 0C23.6464 0 23.3072 0.133722 23.0572 0.371749C22.8071 0.609776 22.6667 0.93261 22.6667 1.26923V2.53846H9.33333V1.26923C9.33333 0.93261 9.19286 0.609776 8.94281 0.371749C8.69276 0.133722 8.35362 0 8 0C7.64638 0 7.30724 0.133722 7.05719 0.371749C6.80714 0.609776 6.66667 0.93261 6.66667 1.26923V2.53846H2.66667C1.95942 2.53846 1.28115 2.80591 0.781048 3.28196C0.280951 3.75801 0 4.40368 0 5.07692V30.4615C0 31.1348 0.280951 31.7804 0.781048 32.2565C1.28115 32.7326 1.95942 33 2.66667 33H29.3333C30.0406 33 30.7189 32.7326 31.219 32.2565C31.719 31.7804 32 31.1348 32 30.4615V5.07692C32 4.40368 31.719 3.75801 31.219 3.28196C30.7189 2.80591 30.0406 2.53846 29.3333 2.53846ZM6.66667 5.07692V6.34615C6.66667 6.68277 6.80714 7.00561 7.05719 7.24364C7.30724 7.48166 7.64638 7.61538 8 7.61538C8.35362 7.61538 8.69276 7.48166 8.94281 7.24364C9.19286 7.00561 9.33333 6.68277 9.33333 6.34615V5.07692H22.6667V6.34615C22.6667 6.68277 22.8071 7.00561 23.0572 7.24364C23.3072 7.48166 23.6464 7.61538 24 7.61538C24.3536 7.61538 24.6928 7.48166 24.9428 7.24364C25.1929 7.00561 25.3333 6.68277 25.3333 6.34615V5.07692H29.3333V10.1538H2.66667V5.07692H6.66667ZM29.3333 30.4615H2.66667V12.6923H29.3333V30.4615ZM21.3333 21.5769C21.3333 21.9135 21.1929 22.2364 20.9428 22.4744C20.6928 22.7124 20.3536 22.8462 20 22.8462H17.3333V25.3846C17.3333 25.7212 17.1929 26.0441 16.9428 26.2821C16.6928 26.5201 16.3536 26.6538 16 26.6538C15.6464 26.6538 15.3072 26.5201 15.0572 26.2821C14.8071 26.0441 14.6667 25.7212 14.6667 25.3846V22.8462H12C11.6464 22.8462 11.3072 22.7124 11.0572 22.4744C10.8071 22.2364 10.6667 21.9135 10.6667 21.5769C10.6667 21.2403 10.8071 20.9175 11.0572 20.6794C11.3072 20.4414 11.6464 20.3077 12 20.3077H14.6667V17.7692C14.6667 17.4326 14.8071 17.1098 15.0572 16.8717C15.3072 16.6337 15.6464 16.5 16 16.5C16.3536 16.5 16.6928 16.6337 16.9428 16.8717C17.1929 17.1098 17.3333 17.4326 17.3333 17.7692V20.3077H20C20.3536 20.3077 20.6928 20.4414 20.9428 20.6794C21.1929 20.9175 21.3333 21.2403 21.3333 21.5769Z" fill="white"/>
</svg>
