<svg width="219" height="52" viewBox="0 0 219 52" fill="none" xmlns="http://www.w3.org/2000/svg">
<path d="M200.912 24.3318C200.531 17.5015 197.389 13.4782 190.154 13.4782C188.154 13.4782 186.441 13.7588 185.013 14.3202C180.633 16.2851 179.015 19.9342 179.015 24.4254C179.015 25.9224 179.205 27.3259 179.681 28.5423C181.109 33.4077 185.394 35.1855 190.154 35.1855C197.389 35.1855 200.912 31.3493 200.912 24.3318ZM219 47.7233H204.72C203.768 45.3842 202.911 43.045 202.34 40.6123C199.103 45.852 194.152 48.1912 188.059 48.1912C174.445 48.1912 164.735 36.9632 164.735 24.1447C164.735 9.36124 175.969 0.472462 190.154 0.472462C205.291 0.472462 214.811 10.0162 215.192 24.3318C215.287 25.5482 215.287 26.9517 215.287 28.6359C215.287 35.1855 216.334 41.7351 219 47.7233Z" fill="url(#paint0_linear_331_98)"/>
<path d="M48.4513 23.6184V46.7738H34.2009V23.6184C34.2009 17.2276 31.1609 12.8744 24.2257 12.8744C17.3855 12.8744 14.2504 17.3202 14.2504 23.6184V46.7738H0V23.6184C0 9.35476 10.0703 0 24.2257 0C38.9511 0 48.4513 9.81787 48.4513 23.6184Z" fill="url(#paint1_linear_331_98)"/>
<path d="M70.4136 18.5019C71.8463 18.9641 73.4699 19.334 75.1891 19.5189C76.9083 19.7963 78.5319 19.8887 80.0601 19.8887C81.9703 19.8887 86.8413 19.5189 86.8413 16.8376C86.8413 13.9714 82.6389 13.8789 80.5376 13.8789C76.3352 13.8789 72.7058 14.8035 70.4136 18.5019ZM97.4429 32.7404V45.6846C92.0943 46.8866 86.7458 47.7187 81.2062 47.7187C66.0202 47.7187 54.75 39.1201 54.75 24.2343C54.75 9.53339 65.6381 0.472462 80.0601 0.472462C89.8976 0.472462 101.263 5.00293 101.263 15.8206C101.263 26.5457 89.229 30.5214 79.9646 30.5214C76.4307 30.5214 72.8969 29.5969 69.6495 28.3024C71.5597 33.4801 77.2903 34.3122 82.2568 34.3122C84.8356 34.3122 87.4143 34.2198 89.9931 33.85C92.3809 33.665 95.1506 33.3877 97.4429 32.7404Z" fill="url(#paint2_linear_331_98)"/>
<path d="M123.535 49.9815C116.01 49.9815 109.887 44.0114 109.887 36.6736C109.887 29.3363 116.01 23.3663 123.535 23.3663H132.983V14.1533C132.983 6.81541 139.105 0.845371 146.629 0.845371C154.154 0.845371 160.277 6.81541 160.277 14.1533C160.277 21.4911 154.154 27.4612 146.629 27.4612H137.181V36.6742C137.181 44.0114 131.059 49.9815 123.535 49.9815ZM123.535 27.4606C118.325 27.4606 114.087 31.5935 114.087 36.6736C114.087 41.7536 118.325 45.8866 123.535 45.8866C128.744 45.8866 132.983 41.7536 132.983 36.6736V27.4606H123.535ZM137.181 23.3663H146.629C151.839 23.3663 156.077 19.2333 156.077 14.1533C156.077 9.07321 151.839 4.94025 146.629 4.94025C141.42 4.94025 137.181 9.07321 137.181 14.1533V23.3663Z" fill="url(#paint3_linear_331_98)"/>
<path d="M109.015 9.88715C109.018 12.3832 110.086 14.7763 111.984 16.5413C113.881 18.3063 116.454 19.2991 119.138 19.3018H127.641C128.071 19.3018 128.483 19.1431 128.787 18.8606C129.091 18.5781 129.261 18.195 129.261 17.7955V9.88715C129.261 7.39022 128.195 4.99556 126.296 3.22996C124.398 1.46437 121.823 0.472464 119.138 0.472464C116.454 0.472464 113.879 1.46437 111.98 3.22996C110.082 4.99556 109.015 7.39022 109.015 9.88715Z" fill="#F8A0CC"/>
<path d="M160.63 40.3258C160.627 37.8297 159.559 35.4366 157.661 33.6716C155.764 31.9066 153.191 30.9139 150.507 30.9111L142.004 30.9111C141.574 30.9111 141.162 31.0698 140.858 31.3523C140.555 31.6348 140.384 32.018 140.384 32.4175V40.3258C140.384 42.8227 141.45 45.2174 143.349 46.983C145.247 48.7486 147.822 49.7405 150.507 49.7405C153.192 49.7405 155.766 48.7486 157.665 46.983C159.563 45.2174 160.63 42.8227 160.63 40.3258Z" fill="#D296FF"/>
<defs>
<linearGradient id="paint0_linear_331_98" x1="191.867" y1="0.472462" x2="191.867" y2="48.1912" gradientUnits="userSpaceOnUse">
<stop stop-color="#F8A0CC"/>
<stop offset="1" stop-color="#D296FF"/>
</linearGradient>
<linearGradient id="paint1_linear_331_98" x1="24.2257" y1="0" x2="24.2257" y2="46.7738" gradientUnits="userSpaceOnUse">
<stop stop-color="#F8A0CC"/>
<stop offset="1" stop-color="#D296FF"/>
</linearGradient>
<linearGradient id="paint2_linear_331_98" x1="78.0066" y1="0.472462" x2="78.0066" y2="47.7187" gradientUnits="userSpaceOnUse">
<stop offset="0.0336538" stop-color="#F8A0CC"/>
<stop offset="1" stop-color="#D296FF"/>
</linearGradient>
<linearGradient id="paint3_linear_331_98" x1="135.082" y1="0.845371" x2="135.082" y2="49.9815" gradientUnits="userSpaceOnUse">
<stop stop-color="#F8A0CC"/>
<stop offset="1" stop-color="#D296FF"/>
</linearGradient>
</defs>
</svg>
