<svg width="58" height="50" viewBox="0 0 58 50" fill="none" xmlns="http://www.w3.org/2000/svg">
<path d="M26.9288 24.9906C26.9288 25.543 26.7106 26.0727 26.3221 26.4632C25.9337 26.8538 25.4068 27.0732 24.8574 27.0732H12.4287C11.8793 27.0732 11.3524 26.8538 10.964 26.4632C10.5755 26.0727 10.3572 25.543 10.3572 24.9906C10.3572 24.4383 10.5755 23.9086 10.964 23.518C11.3524 23.1275 11.8793 22.9081 12.4287 22.9081H24.8574C25.4068 22.9081 25.9337 23.1275 26.3221 23.518C26.7106 23.9086 26.9288 24.4383 26.9288 24.9906ZM24.8574 14.5779H12.4287C11.8793 14.5779 11.3524 14.7973 10.964 15.1878C10.5755 15.5784 10.3572 16.1081 10.3572 16.6604C10.3572 17.2127 10.5755 17.7425 10.964 18.133C11.3524 18.5236 11.8793 18.743 12.4287 18.743H24.8574C25.4068 18.743 25.9337 18.5236 26.3221 18.133C26.7106 17.7425 26.9288 17.2127 26.9288 16.6604C26.9288 16.1081 26.7106 15.5784 26.3221 15.1878C25.9337 14.7973 25.4068 14.5779 24.8574 14.5779ZM53.8577 31.621V47.8987C53.861 48.2659 53.7676 48.6274 53.5872 48.9466C53.4067 49.2658 53.1455 49.5313 52.8301 49.7163C52.5146 49.9013 52.1561 49.9992 51.7909 50C51.4257 50.0008 51.0668 49.9045 50.7505 49.7209L44.5362 46.1442L38.3218 49.7209C38.0055 49.9045 37.6466 50.0008 37.2814 50C36.9162 49.9992 36.5577 49.9013 36.2423 49.7163C35.9268 49.5313 35.6656 49.2658 35.4851 48.9466C35.3047 48.6274 35.2113 48.2659 35.2146 47.8987V41.6511H4.1429C3.04413 41.6511 1.99037 41.2122 1.21343 40.4311C0.436482 39.65 0 38.5906 0 37.4859V4.16511C0 3.06045 0.436482 2.00104 1.21343 1.21993C1.99037 0.438822 3.04413 0 4.1429 0H49.7148C50.8135 0 51.8673 0.438822 52.6442 1.21993C53.4212 2.00104 53.8577 3.06045 53.8577 4.16511V12.1126C55.1671 13.3733 56.2092 14.8875 56.9211 16.5638C57.633 18.2402 58 20.0441 58 21.8668C58 23.6896 57.633 25.4934 56.9211 27.1698C56.2092 28.8461 55.1671 30.3603 53.8577 31.621ZM35.2146 37.4859V31.621C32.9573 29.4323 31.5307 26.5201 31.181 23.3868C30.8313 20.2536 31.5804 17.096 33.2991 14.4587C35.0178 11.8215 37.5983 9.87014 40.5952 8.94139C43.5921 8.01264 46.8175 8.16476 49.7148 9.37149V4.16511H4.1429V37.4859H35.2146ZM49.7148 34.3621C48.0743 35.0512 46.3141 35.406 44.5362 35.406C42.7582 35.406 40.998 35.0512 39.3575 34.3621V44.3115L43.5004 41.927C43.8135 41.7471 44.1678 41.6525 44.5284 41.6525C44.889 41.6525 45.2433 41.7471 45.5563 41.927L49.6992 44.3115L49.7148 34.3621ZM53.8577 21.8668C53.8577 20.0133 53.311 18.2014 52.2867 16.6603C51.2625 15.1192 49.8066 13.918 48.1033 13.2087C46.4001 12.4994 44.5258 12.3138 42.7176 12.6754C40.9094 13.037 39.2485 13.9295 37.9448 15.2402C36.6412 16.5508 35.7534 18.2206 35.3937 20.0385C35.0341 21.8564 35.2187 23.7407 35.9242 25.4531C36.6297 27.1655 37.8245 28.6292 39.3574 29.6589C40.8903 30.6887 42.6925 31.2383 44.5362 31.2383C45.7603 31.2383 46.9724 30.9959 48.1033 30.5249C49.2343 30.054 50.2619 29.3637 51.1275 28.4934C51.993 27.6232 52.6797 26.5901 53.1481 25.4531C53.6166 24.3161 53.8577 23.0975 53.8577 21.8668Z" fill="url(#paint0_linear_331_132)"/>
<defs>
<linearGradient id="paint0_linear_331_132" x1="29" y1="0" x2="29" y2="50" gradientUnits="userSpaceOnUse">
<stop stop-color="#F8A0CC"/>
<stop offset="1" stop-color="#D296FF"/>
</linearGradient>
</defs>
</svg>
