<svg width="55" height="55" viewBox="0 0 55 55" fill="none" xmlns="http://www.w3.org/2000/svg">
<path d="M17.9808 30.6731C17.3532 30.6731 16.7397 30.487 16.2179 30.1383C15.6961 29.7896 15.2894 29.2941 15.0492 28.7143C14.8091 28.1345 14.7462 27.4965 14.8687 26.881C14.9911 26.2654 15.2933 25.7001 15.7371 25.2563C16.1808 24.8125 16.7462 24.5103 17.3617 24.3879C17.9773 24.2655 18.6153 24.3283 19.1951 24.5685C19.7749 24.8086 20.2704 25.2153 20.6191 25.7371C20.9678 26.2589 21.1539 26.8724 21.1539 27.5C21.1539 28.3415 20.8195 29.1486 20.2245 29.7437C19.6294 30.3388 18.8223 30.6731 17.9808 30.6731ZM37.0192 24.3269C36.3917 24.3269 35.7782 24.513 35.2564 24.8617C34.7346 25.2103 34.3279 25.7059 34.0877 26.2857C33.8475 26.8655 33.7847 27.5035 33.9071 28.119C34.0296 28.7345 34.3318 29.2999 34.7755 29.7437C35.2193 30.1875 35.7847 30.4897 36.4002 30.6121C37.0157 30.7345 37.6537 30.6717 38.2335 30.4315C38.8133 30.1914 39.3089 29.7847 39.6576 29.2629C40.0062 28.741 40.1923 28.1276 40.1923 27.5C40.1923 26.6584 39.858 25.8514 39.2629 25.2563C38.6679 24.6612 37.8608 24.3269 37.0192 24.3269ZM33.7748 36.2868C31.8907 37.4561 29.7174 38.0757 27.5 38.0757C25.2826 38.0757 23.1093 37.4561 21.2252 36.2868C20.7505 35.9873 20.1762 35.8887 19.6287 36.0127C19.0813 36.1367 18.6055 36.473 18.306 36.9478C18.0066 37.4226 17.908 37.9969 18.032 38.5443C18.1559 39.0918 18.4923 39.5676 18.9671 39.8671C21.5271 41.4629 24.4833 42.3089 27.5 42.3089C30.5167 42.3089 33.4729 41.4629 36.0329 39.8671C36.5077 39.5676 36.8441 39.0918 36.9681 38.5443C37.092 37.9969 36.9934 37.4226 36.694 36.9478C36.3945 36.473 35.9187 36.1367 35.3713 36.0127C34.8238 35.8887 34.2495 35.9873 33.7748 36.2868ZM55 27.5C55 32.939 53.3872 38.2558 50.3654 42.7782C47.3437 47.3005 43.0488 50.8253 38.0238 52.9067C32.9988 54.9881 27.4695 55.5327 22.135 54.4716C16.8005 53.4105 11.9005 50.7914 8.05457 46.9454C4.20863 43.0995 1.58951 38.1995 0.528417 32.865C-0.532676 27.5305 0.0119153 22.0012 2.09332 16.9762C4.17473 11.9512 7.69948 7.65632 12.2218 4.63458C16.7442 1.61285 22.061 0 27.5 0C34.7911 0.00769952 41.7814 2.90748 46.9369 8.06307C52.0925 13.2186 54.9923 20.2089 55 27.5ZM50.7692 27.5C50.7619 21.5099 48.4476 15.7527 44.3071 11.4241C40.1665 7.09542 34.5178 4.52786 28.5339 4.25457C25.4692 8.56202 25.3846 12.6606 25.3846 12.6923C25.3846 13.2533 25.6075 13.7914 26.0042 14.1881C26.4009 14.5848 26.939 14.8077 27.5 14.8077C28.061 14.8077 28.5991 14.5848 28.9958 14.1881C29.3925 13.7914 29.6154 13.2533 29.6154 12.6923C29.6154 12.1313 29.8383 11.5932 30.235 11.1965C30.6317 10.7998 31.1697 10.5769 31.7308 10.5769C32.2918 10.5769 32.8299 10.7998 33.2266 11.1965C33.6233 11.5932 33.8462 12.1313 33.8462 12.6923C33.8462 14.3754 33.1775 15.9896 31.9874 17.1797C30.7973 18.3698 29.1831 19.0385 27.5 19.0385C25.8169 19.0385 24.2027 18.3698 23.0126 17.1797C21.8225 15.9896 21.1539 14.3754 21.1539 12.6923C21.1539 12.4993 21.1882 8.91106 23.3909 4.59303C19.0341 5.37467 14.9907 7.38273 11.735 10.3816C8.4794 13.3804 6.14662 17.2456 5.01044 21.5236C3.87425 25.8016 3.9818 30.3149 5.32047 34.534C6.65914 38.753 9.17339 42.5027 12.5682 45.3431C15.963 48.1834 20.0975 49.9966 24.4865 50.5698C28.8755 51.1431 33.337 50.4526 37.3474 48.5794C41.3578 46.7062 44.7508 43.728 47.1281 39.9943C49.5055 36.2606 50.7686 31.9263 50.7692 27.5Z" fill="url(#paint0_linear_331_120)"/>
<defs>
<linearGradient id="paint0_linear_331_120" x1="27.5" y1="0" x2="27.5" y2="55" gradientUnits="userSpaceOnUse">
<stop stop-color="#F8A0CC"/>
<stop offset="1" stop-color="#D296FF"/>
</linearGradient>
</defs>
</svg>
