<svg width="55" height="59" viewBox="0 0 55 59" fill="none" xmlns="http://www.w3.org/2000/svg">
<path d="M52.9948 0.794651C52.3808 0.376954 51.673 0.114374 50.933 0.0298092C50.193 -0.0547561 49.4434 0.0412617 48.7495 0.309489C44.7305 1.85861 36.6151 4.45749 27.5 4.45749C18.3849 4.45749 10.2667 1.85861 6.24193 0.309489C5.54751 0.0425021 4.79785 -0.0528242 4.05786 0.0317628C3.31786 0.11635 2.60984 0.378301 1.99507 0.794937C1.38031 1.21157 0.877343 1.77034 0.529711 2.42286C0.18208 3.07538 0.000261911 3.80198 0 4.53977V20.3629C0 30.5314 2.76432 40.124 7.78594 47.3674C12.988 54.8747 19.9891 59 27.5 59C35.0109 59 42.012 54.8662 47.2141 47.3674C52.2357 40.1297 55 30.5371 55 20.3686V4.53977C54.9987 3.80104 54.8153 3.07379 54.4659 2.42115C54.1164 1.76851 53.6115 1.21019 52.9948 0.794651ZM50.4167 20.3714C50.4167 29.632 47.9359 38.3111 43.4357 44.8083C39.113 51.0416 33.4555 54.4747 27.5 54.4747C21.5445 54.4747 15.887 51.0416 11.5643 44.8054C7.06406 38.3026 4.58333 29.6292 4.58333 20.3686V4.53977C8.91172 6.20521 17.6401 8.99702 27.5 8.99702C37.3599 8.99702 46.0911 6.20521 50.4167 4.53977V20.3742V20.3714ZM45.2604 25.7252C45.6654 26.1767 45.8726 26.769 45.8366 27.3719C45.8006 27.9747 45.5243 28.5387 45.0685 28.9398C44.6127 29.3408 44.0146 29.5461 43.406 29.5105C42.7973 29.4748 42.2279 29.2012 41.8229 28.7497C41.0552 27.8985 39.2878 27.2374 37.8125 27.2374C36.3372 27.2374 34.5583 27.9014 33.8021 28.7497C33.3968 29.2012 32.827 29.4747 32.218 29.5101C31.6091 29.5454 31.0109 29.3398 30.5551 28.9383C30.0992 28.5369 29.8231 27.9726 29.7874 27.3694C29.7516 26.7663 29.9593 26.1739 30.3646 25.7224C32.0003 23.9122 34.988 22.6979 37.8125 22.6979C40.637 22.6979 43.6133 23.9122 45.2604 25.7224V25.7252ZM17.1875 27.2374C15.7008 27.2374 13.9333 27.9014 13.1771 28.7497C12.7718 29.2012 12.202 29.4747 11.593 29.5101C10.9841 29.5454 10.3859 29.3398 9.93008 28.9383C9.47424 28.5369 9.19808 27.9726 9.16235 27.3694C9.12663 26.7663 9.33426 26.1739 9.73958 25.7224C11.3867 23.9122 14.3745 22.6979 17.1875 22.6979C20.0005 22.6979 22.9883 23.9122 24.6354 25.7224C25.0407 26.1739 25.2484 26.7663 25.2126 27.3694C25.1769 27.9726 24.9008 28.5369 24.4449 28.9383C24.2192 29.1371 23.9562 29.2899 23.6709 29.388C23.3855 29.4861 23.0835 29.5276 22.782 29.5101C22.173 29.4747 21.6032 29.2012 21.1979 28.7497C20.4417 27.9014 18.6742 27.2374 17.1875 27.2374ZM39.0872 40.0588C37.6648 41.7304 35.8908 43.0741 33.8893 43.9959C31.8879 44.9177 29.7073 45.3953 27.5 45.3953C25.2927 45.3953 23.1121 44.9177 21.1107 43.9959C19.1092 43.0741 17.3352 41.7304 15.9128 40.0588C15.7173 39.8321 15.5689 39.5695 15.476 39.2859C15.383 39.0024 15.3473 38.7035 15.371 38.4063C15.3947 38.1091 15.4772 37.8195 15.6139 37.5539C15.7506 37.2883 15.9388 37.052 16.1677 36.8584C16.3966 36.6649 16.6618 36.5179 16.948 36.4258C17.2343 36.3337 17.5361 36.2984 17.8361 36.3219C18.1362 36.3453 18.4286 36.4271 18.6968 36.5625C18.9649 36.6978 19.2035 36.8842 19.399 37.1109C20.3908 38.2838 21.6302 39.227 23.0298 39.8741C24.4295 40.5213 25.9554 40.8567 27.5 40.8567C29.0447 40.8567 30.5705 40.5213 31.9702 39.8741C33.3698 39.227 34.6092 38.2838 35.601 37.1109C35.7965 36.8842 36.0351 36.6978 36.3032 36.5625C36.5714 36.4271 36.8638 36.3453 37.1639 36.3219C37.4639 36.2984 37.7657 36.3337 38.052 36.4258C38.3382 36.5179 38.6034 36.6649 38.8323 36.8584C39.0612 37.052 39.2494 37.2883 39.3861 37.5539C39.5228 37.8195 39.6053 38.1091 39.629 38.4063C39.6527 38.7035 39.617 39.0024 39.524 39.2859C39.4311 39.5695 39.2827 39.8321 39.0872 40.0588Z" fill="url(#paint0_linear_331_124)"/>
<defs>
<linearGradient id="paint0_linear_331_124" x1="27.5" y1="0" x2="27.5" y2="59" gradientUnits="userSpaceOnUse">
<stop stop-color="#F8A0CC"/>
<stop offset="1" stop-color="#D296FF"/>
</linearGradient>
</defs>
</svg>
