<svg width="55" height="55" viewBox="0 0 55 55" fill="none" xmlns="http://www.w3.org/2000/svg">
<path d="M27.5 0C22.061 0 16.7442 1.61285 12.2218 4.63458C7.69948 7.65632 4.17473 11.9512 2.09332 16.9762C0.0119153 22.0012 -0.532676 27.5305 0.528417 32.865C1.58951 38.1995 4.20863 43.0995 8.05457 46.9454C11.9005 50.7914 16.8005 53.4105 22.135 54.4716C27.4695 55.5327 32.9988 54.9881 38.0238 52.9067C43.0488 50.8253 47.3437 47.3005 50.3654 42.7782C53.3872 38.2558 55 32.939 55 27.5C54.9923 20.2089 52.0925 13.2186 46.9369 8.06307C41.7814 2.90748 34.7911 0.00769952 27.5 0ZM27.5 50.7692C22.8978 50.7692 18.3989 49.4045 14.5723 46.8476C10.7457 44.2908 7.76324 40.6566 6.00204 36.4047C4.24085 32.1528 3.78004 27.4742 4.67789 22.9604C5.57574 18.4466 7.79192 14.3004 11.0462 11.0462C14.3004 7.79191 18.4466 5.57573 22.9604 4.67788C27.4742 3.78003 32.1529 4.24084 36.4048 6.00203C40.6566 7.76323 44.2908 10.7457 46.8477 14.5723C49.4045 18.3989 50.7692 22.8978 50.7692 27.5C50.7622 33.6692 48.3084 39.5838 43.9461 43.9461C39.5838 48.3084 33.6692 50.7622 27.5 50.7692ZM27.5 12.6923C23.5741 12.6965 19.8101 14.2579 17.034 17.034C14.258 19.8101 12.6965 23.574 12.6923 27.5C12.6923 28.061 12.4694 28.5991 12.0727 28.9958C11.676 29.3925 11.138 29.6154 10.5769 29.6154C10.0159 29.6154 9.47784 29.3925 9.08113 28.9958C8.68442 28.5991 8.46155 28.061 8.46155 27.5C8.46715 22.4524 10.4748 17.6131 14.044 14.044C17.6132 10.4748 22.4524 8.46714 27.5 8.46154C28.061 8.46154 28.5991 8.68441 28.9958 9.08112C29.3925 9.47783 29.6154 10.0159 29.6154 10.5769C29.6154 11.138 29.3925 11.676 28.9958 12.0727C28.5991 12.4694 28.061 12.6923 27.5 12.6923ZM46.5385 27.5C46.5329 32.5476 44.5252 37.3868 40.956 40.956C37.3869 44.5252 32.5476 46.5329 27.5 46.5385C26.939 46.5385 26.4009 46.3156 26.0042 45.9189C25.6075 45.5222 25.3846 44.9841 25.3846 44.4231C25.3846 43.862 25.6075 43.324 26.0042 42.9273C26.4009 42.5306 26.939 42.3077 27.5 42.3077C31.426 42.3035 35.1899 40.742 37.966 37.966C40.7421 35.1899 42.3035 31.4259 42.3077 27.5C42.3077 26.939 42.5306 26.4009 42.9273 26.0042C43.324 25.6075 43.862 25.3846 44.4231 25.3846C44.9841 25.3846 45.5222 25.6075 45.9189 26.0042C46.3156 26.4009 46.5385 26.939 46.5385 27.5ZM35.9615 27.5C35.9615 25.8265 35.4653 24.1905 34.5355 22.799C33.6058 21.4075 32.2842 20.323 30.7381 19.6826C29.1919 19.0421 27.4906 18.8746 25.8492 19.201C24.2079 19.5275 22.7002 20.3334 21.5168 21.5168C20.3334 22.7001 19.5275 24.2079 19.2011 25.8492C18.8746 27.4906 19.0421 29.1919 19.6826 30.7381C20.323 32.2842 21.4075 33.6057 22.799 34.5355C24.1905 35.4653 25.8265 35.9615 27.5 35.9615C29.7441 35.9615 31.8964 35.07 33.4832 33.4832C35.0701 31.8964 35.9615 29.7441 35.9615 27.5ZM23.2692 27.5C23.2692 26.6632 23.5174 25.8453 23.9823 25.1495C24.4471 24.4538 25.1079 23.9115 25.881 23.5913C26.654 23.2711 27.5047 23.1873 28.3254 23.3505C29.1461 23.5138 29.8999 23.9167 30.4916 24.5084C31.0833 25.1001 31.4862 25.8539 31.6495 26.6746C31.8127 27.4953 31.7289 28.346 31.4087 29.119C31.0885 29.8921 30.5462 30.5529 29.8505 31.0177C29.1547 31.4826 28.3368 31.7308 27.5 31.7308C26.3779 31.7308 25.3018 31.285 24.5084 30.4916C23.715 29.6982 23.2692 28.6221 23.2692 27.5Z" fill="url(#paint0_linear_331_147)"/>
<defs>
<linearGradient id="paint0_linear_331_147" x1="27.5" y1="0" x2="27.5" y2="55" gradientUnits="userSpaceOnUse">
<stop stop-color="#F8A0CC"/>
<stop offset="1" stop-color="#D296FF"/>
</linearGradient>
</defs>
</svg>
