<svg width="44" height="41" viewBox="0 0 44 41" fill="none" xmlns="http://www.w3.org/2000/svg">
<path d="M21.8759 3.12587C18.1675 3.12587 14.5423 4.22554 11.4589 6.28581C8.37551 8.34609 5.97227 11.2744 4.55313 14.7006C3.13398 18.1267 2.76267 21.8967 3.48614 25.5338C4.20962 29.171 5.99538 32.5119 8.61762 35.1341C11.2399 37.7564 14.5808 39.5421 18.2179 40.2656C21.8551 40.9891 25.6251 40.6178 29.0512 39.1986C32.4773 37.7795 35.4056 35.3762 37.4659 32.2928C39.5262 29.2094 40.6259 25.5843 40.6259 21.8759C40.6202 16.9048 38.6429 12.139 35.1278 8.6239C31.6128 5.10882 26.8469 3.13156 21.8759 3.12587ZM21.8759 37.5009C18.7855 37.5009 15.7646 36.5845 13.1951 34.8676C10.6256 33.1507 8.62287 30.7104 7.44025 27.8553C6.25763 25.0002 5.9482 21.8585 6.5511 18.8276C7.15399 15.7966 8.64213 13.0125 10.8273 10.8273C13.0125 8.64213 15.7966 7.15399 18.8276 6.5511C21.8585 5.9482 25.0002 6.25763 27.8553 7.44025C30.7104 8.62287 33.1507 10.6256 34.8676 13.1951C36.5845 15.7646 37.5009 18.7855 37.5009 21.8759C37.4962 26.0184 35.8485 29.99 32.9193 32.9193C29.99 35.8485 26.0184 37.4962 21.8759 37.5009ZM8.91884 2.66884L2.66884 8.91884C2.37565 9.21203 1.978 9.37674 1.56337 9.37674C1.14874 9.37674 0.751089 9.21203 0.4579 8.91884C0.164712 8.62565 4.36885e-09 8.228 0 7.81337C-4.36885e-09 7.39874 0.164712 7.00109 0.4579 6.7079L6.7079 0.4579C7.00109 0.164711 7.39874 0 7.81337 0C8.228 0 8.62565 0.164711 8.91884 0.4579C9.21203 0.751089 9.37674 1.14874 9.37674 1.56337C9.37674 1.978 9.21203 2.37565 8.91884 2.66884ZM43.2938 8.91884C43.1487 9.06411 42.9764 9.17936 42.7867 9.25799C42.597 9.33663 42.3937 9.3771 42.1884 9.3771C41.983 9.3771 41.7797 9.33663 41.59 9.25799C41.4003 9.17936 41.228 9.06411 41.0829 8.91884L34.8329 2.66884C34.5397 2.37565 34.375 1.978 34.375 1.56337C34.375 1.14874 34.5397 0.751089 34.8329 0.4579C35.1261 0.164711 35.5237 8.17337e-09 35.9384 0C36.353 -8.17337e-09 36.7507 0.164712 37.0438 0.4579L43.2938 6.7079C43.4391 6.85301 43.5544 7.02534 43.633 7.21502C43.7116 7.40471 43.7521 7.60803 43.7521 7.81337C43.7521 8.01871 43.7116 8.22203 43.633 8.41171C43.5544 8.6014 43.4391 8.77372 43.2938 8.91884ZM32.8134 20.3134C33.2278 20.3134 33.6252 20.478 33.9182 20.771C34.2113 21.064 34.3759 21.4615 34.3759 21.8759C34.3759 22.2903 34.2113 22.6877 33.9182 22.9807C33.6252 23.2738 33.2278 23.4384 32.8134 23.4384H21.8759C21.4615 23.4384 21.064 23.2738 20.771 22.9807C20.478 22.6877 20.3134 22.2903 20.3134 21.8759V10.9384C20.3134 10.524 20.478 10.1265 20.771 9.83352C21.064 9.54049 21.4615 9.37587 21.8759 9.37587C22.2903 9.37587 22.6877 9.54049 22.9807 9.83352C23.2738 10.1265 23.4384 10.524 23.4384 10.9384V20.3134H32.8134Z" fill="white"/>
</svg>
